<svg xmlns="http://www.w3.org/2000/svg" xmlns:xlink="http://www.w3.org/1999/xlink" xmlns:s="https://github.com/nturley/netlistsvg" width="1408.5" height="1295.5">  <style>svg {
    stroke:#000;
    fill:none;
    background-color:white;
  }
text {
  fill:#000;
  stroke:none;
  font-size:10px;
  font-weight: bold;
  font-family: "Courier New", monospace;
}
line {
    stroke-linecap: round;
}
.nodelabel {
  text-anchor: middle;
}
.inputPortLabel {
  text-anchor: end;
}
.splitjoinBody {
  fill:#000;
}</style><g s:type="generic" transform="translate(892,746.5)" s:width="30" s:height="40" id="cell_$auto$mem.cc:273:emit$4"><text x="15" y="-4" class="nodelabel cell_$auto$mem.cc:273:emit$4" s:attribute="ref">$memrd_v2-bus</text><rect width="30" height="100" s:generic="body" fill="#ffae46" rx="0" class="cell_$auto$mem.cc:273:emit$4"/><g transform="translate(0,10)" s:x="0" s:y="10" s:pid="in0" id="port_$auto$mem.cc:273:emit$4~ADDR"><text x="-3" y="-4" class="inputPortLabel cell_$auto$mem.cc:273:emit$4">ADDR</text></g><g transform="translate(0,30)" s:x="0" s:y="10" s:pid="in0" id="port_$auto$mem.cc:273:emit$4~ARST"><text x="-3" y="-4" class="inputPortLabel cell_$auto$mem.cc:273:emit$4">ARST</text></g><g transform="translate(0,50)" s:x="0" s:y="10" s:pid="in0" id="port_$auto$mem.cc:273:emit$4~CLK"><text x="-3" y="-4" class="inputPortLabel cell_$auto$mem.cc:273:emit$4">CLK</text></g><g transform="translate(0,70)" s:x="0" s:y="10" s:pid="in0" id="port_$auto$mem.cc:273:emit$4~EN"><text x="-3" y="-4" class="inputPortLabel cell_$auto$mem.cc:273:emit$4">EN</text></g><g transform="translate(0,90)" s:x="0" s:y="10" s:pid="in0" id="port_$auto$mem.cc:273:emit$4~SRST"><text x="-3" y="-4" class="inputPortLabel cell_$auto$mem.cc:273:emit$4">SRST</text></g><g transform="translate(30,10)" s:x="30" s:y="10" s:pid="out0" id="port_$auto$mem.cc:273:emit$4~DATA"><text x="5" y="-4" style="fill:#000; stroke:none" class="cell_$auto$mem.cc:273:emit$4">DATA</text></g></g><g s:type="generic" transform="translate(143,22)" s:width="30" s:height="40" id="cell_$auto$mem.cc:319:emit$5"><text x="15" y="-4" class="nodelabel cell_$auto$mem.cc:319:emit$5" s:attribute="ref">$meminit-bus</text><rect width="30" height="40" s:generic="body" fill="#ffae46" rx="0" class="cell_$auto$mem.cc:319:emit$5"/><g transform="translate(0,10)" s:x="0" s:y="10" s:pid="in0" id="port_$auto$mem.cc:319:emit$5~ADDR"><text x="-3" y="-4" class="inputPortLabel cell_$auto$mem.cc:319:emit$5">ADDR</text></g><g transform="translate(0,30)" s:x="0" s:y="10" s:pid="in0" id="port_$auto$mem.cc:319:emit$5~DATA"><text x="-3" y="-4" class="inputPortLabel cell_$auto$mem.cc:319:emit$5">DATA</text></g></g><g s:type="eq" transform="translate(615.3333333333333,232)" s:width="25" s:height="25" id="cell_$procmux$10_CMP0"><s:alias val="$eq"/><circle r="12.5" cx="12.5" cy="12.5" fill="#ffc9c3" class="cell_$procmux$10_CMP0"/><line x1="7.5" x2="17.5" y1="10" y2="10" class="cell_$procmux$10_CMP0"/><line x1="7.5" x2="17.5" y1="15" y2="15" class="cell_$procmux$10_CMP0"/><g s:x="2" s:y="5" s:pid="A"/><g s:x="2" s:y="20" s:pid="B"/><g s:x="25" s:y="12.5" s:pid="Y"/></g><g s:type="eq" transform="translate(615.3333333333333,297)" s:width="25" s:height="25" id="cell_$procmux$11_CMP0"><s:alias val="$eq"/><circle r="12.5" cx="12.5" cy="12.5" fill="#ffc9c3" class="cell_$procmux$11_CMP0"/><line x1="7.5" x2="17.5" y1="10" y2="10" class="cell_$procmux$11_CMP0"/><line x1="7.5" x2="17.5" y1="15" y2="15" class="cell_$procmux$11_CMP0"/><g s:x="2" s:y="5" s:pid="A"/><g s:x="2" s:y="20" s:pid="B"/><g s:x="25" s:y="12.5" s:pid="Y"/></g><g s:type="eq" transform="translate(615.3333333333333,357)" s:width="25" s:height="25" id="cell_$procmux$12_CMP0"><s:alias val="$eq"/><circle r="12.5" cx="12.5" cy="12.5" fill="#ffc9c3" class="cell_$procmux$12_CMP0"/><line x1="7.5" x2="17.5" y1="10" y2="10" class="cell_$procmux$12_CMP0"/><line x1="7.5" x2="17.5" y1="15" y2="15" class="cell_$procmux$12_CMP0"/><g s:x="2" s:y="5" s:pid="A"/><g s:x="2" s:y="20" s:pid="B"/><g s:x="25" s:y="12.5" s:pid="Y"/></g><g s:type="eq" transform="translate(615.3333333333333,417)" s:width="25" s:height="25" id="cell_$procmux$13_CMP0"><s:alias val="$eq"/><circle r="12.5" cx="12.5" cy="12.5" fill="#ffc9c3" class="cell_$procmux$13_CMP0"/><line x1="7.5" x2="17.5" y1="10" y2="10" class="cell_$procmux$13_CMP0"/><line x1="7.5" x2="17.5" y1="15" y2="15" class="cell_$procmux$13_CMP0"/><g s:x="2" s:y="5" s:pid="A"/><g s:x="2" s:y="20" s:pid="B"/><g s:x="25" s:y="12.5" s:pid="Y"/></g><g s:type="eq" transform="translate(615.3333333333333,477)" s:width="25" s:height="25" id="cell_$procmux$14_CMP0"><s:alias val="$eq"/><circle r="12.5" cx="12.5" cy="12.5" fill="#ffc9c3" class="cell_$procmux$14_CMP0"/><line x1="7.5" x2="17.5" y1="10" y2="10" class="cell_$procmux$14_CMP0"/><line x1="7.5" x2="17.5" y1="15" y2="15" class="cell_$procmux$14_CMP0"/><g s:x="2" s:y="5" s:pid="A"/><g s:x="2" s:y="20" s:pid="B"/><g s:x="25" s:y="12.5" s:pid="Y"/></g><g s:type="eq" transform="translate(615.3333333333333,537)" s:width="25" s:height="25" id="cell_$procmux$15_CMP0"><s:alias val="$eq"/><circle r="12.5" cx="12.5" cy="12.5" fill="#ffc9c3" class="cell_$procmux$15_CMP0"/><line x1="7.5" x2="17.5" y1="10" y2="10" class="cell_$procmux$15_CMP0"/><line x1="7.5" x2="17.5" y1="15" y2="15" class="cell_$procmux$15_CMP0"/><g s:x="2" s:y="5" s:pid="A"/><g s:x="2" s:y="20" s:pid="B"/><g s:x="25" s:y="12.5" s:pid="Y"/></g><g s:type="not" transform="translate(614,597)" s:width="30" s:height="20" id="cell_$procmux$16_CMP0"><s:alias val="$_NOT_"/><s:alias val="$not"/><s:alias val="$logic_not"/><path d="M0,0 L0,20 L20,10 Z" fill="#eebaff" class="cell_$procmux$16_CMP0"/><circle cx="24" cy="10" r="3" fill="#eebaff" class="cell_$procmux$16_CMP0"/><g s:x="-1" s:y="10" s:pid="A"/><g s:x="27" s:y="10" s:pid="Y"/></g><g s:type="mux-bus" transform="translate(1232,727)" s:width="24" s:height="40" id="cell_$procmux$17"><s:alias val="$pmux-bus"/><s:alias val="$mux-bus"/><s:alias val="$_MUX_-bus"/><path d="M8,2 L8,0 L24,8 L24,32 L8,40 L8,38" fill="#ffffff" class="cell_$procmux$17"/><path d="M4,2 L4,0 L22,9 L22,31 L4,40 L4,38" fill="#ffffff" class="cell_$procmux$17"/><path d="M0,0 L20,10 L20,30 L0,40 Z" fill="#ffffff" class="cell_$procmux$17"/><text x="5" y="32" class="nodelabel cell_$procmux$17" s:attribute="">1</text><text x="5" y="13" class="nodelabel cell_$procmux$17" s:attribute="">0</text><g s:x="-1" s:y="10" s:pid="A"/><g s:x="-1" s:y="30" s:pid="B"/><g s:x="12" s:y="38" s:pid="S"/><g s:x="24.5" s:y="20" s:pid="Y"/></g><g s:type="eq" transform="translate(1067.3333333333335,953.5)" s:width="25" s:height="25" id="cell_$procmux$18_CMP0"><s:alias val="$eq"/><circle r="12.5" cx="12.5" cy="12.5" fill="#ffc9c3" class="cell_$procmux$18_CMP0"/><line x1="7.5" x2="17.5" y1="10" y2="10" class="cell_$procmux$18_CMP0"/><line x1="7.5" x2="17.5" y1="15" y2="15" class="cell_$procmux$18_CMP0"/><g s:x="2" s:y="5" s:pid="A"/><g s:x="2" s:y="20" s:pid="B"/><g s:x="25" s:y="12.5" s:pid="Y"/></g><g s:type="eq" transform="translate(1067.3333333333335,1013.5)" s:width="25" s:height="25" id="cell_$procmux$20_CMP0"><s:alias val="$eq"/><circle r="12.5" cx="12.5" cy="12.5" fill="#ffc9c3" class="cell_$procmux$20_CMP0"/><line x1="7.5" x2="17.5" y1="10" y2="10" class="cell_$procmux$20_CMP0"/><line x1="7.5" x2="17.5" y1="15" y2="15" class="cell_$procmux$20_CMP0"/><g s:x="2" s:y="5" s:pid="A"/><g s:x="2" s:y="20" s:pid="B"/><g s:x="25" s:y="12.5" s:pid="Y"/></g><g s:type="eq" transform="translate(1067.3333333333335,1073.5)" s:width="25" s:height="25" id="cell_$procmux$21_CMP0"><s:alias val="$eq"/><circle r="12.5" cx="12.5" cy="12.5" fill="#ffc9c3" class="cell_$procmux$21_CMP0"/><line x1="7.5" x2="17.5" y1="10" y2="10" class="cell_$procmux$21_CMP0"/><line x1="7.5" x2="17.5" y1="15" y2="15" class="cell_$procmux$21_CMP0"/><g s:x="2" s:y="5" s:pid="A"/><g s:x="2" s:y="20" s:pid="B"/><g s:x="25" s:y="12.5" s:pid="Y"/></g><g s:type="not" transform="translate(1066,1133.5)" s:width="30" s:height="20" id="cell_$procmux$22_CMP0"><s:alias val="$_NOT_"/><s:alias val="$not"/><s:alias val="$logic_not"/><path d="M0,0 L0,20 L20,10 Z" fill="#eebaff" class="cell_$procmux$22_CMP0"/><circle cx="24" cy="10" r="3" fill="#eebaff" class="cell_$procmux$22_CMP0"/><g s:x="-1" s:y="10" s:pid="A"/><g s:x="27" s:y="10" s:pid="Y"/></g><g s:type="mux-bus" transform="translate(921.3333333333334,204)" s:width="24" s:height="40" id="cell_$procmux$7"><s:alias val="$pmux-bus"/><s:alias val="$mux-bus"/><s:alias val="$_MUX_-bus"/><path d="M8,2 L8,0 L24,8 L24,32 L8,40 L8,38" fill="#ffffff" class="cell_$procmux$7"/><path d="M4,2 L4,0 L22,9 L22,31 L4,40 L4,38" fill="#ffffff" class="cell_$procmux$7"/><path d="M0,0 L20,10 L20,30 L0,40 Z" fill="#ffffff" class="cell_$procmux$7"/><text x="5" y="32" class="nodelabel cell_$procmux$7" s:attribute="">1</text><text x="5" y="13" class="nodelabel cell_$procmux$7" s:attribute="">0</text><g s:x="-1" s:y="10" s:pid="A"/><g s:x="-1" s:y="30" s:pid="B"/><g s:x="12" s:y="38" s:pid="S"/><g s:x="24.5" s:y="20" s:pid="Y"/></g><g s:type="eq" transform="translate(615.3333333333333,57)" s:width="25" s:height="25" id="cell_$procmux$8_CMP0"><s:alias val="$eq"/><circle r="12.5" cx="12.5" cy="12.5" fill="#ffc9c3" class="cell_$procmux$8_CMP0"/><line x1="7.5" x2="17.5" y1="10" y2="10" class="cell_$procmux$8_CMP0"/><line x1="7.5" x2="17.5" y1="15" y2="15" class="cell_$procmux$8_CMP0"/><g s:x="2" s:y="5" s:pid="A"/><g s:x="2" s:y="20" s:pid="B"/><g s:x="25" s:y="12.5" s:pid="Y"/></g><g s:type="eq" transform="translate(615.3333333333333,167)" s:width="25" s:height="25" id="cell_$procmux$9_CMP0"><s:alias val="$eq"/><circle r="12.5" cx="12.5" cy="12.5" fill="#ffc9c3" class="cell_$procmux$9_CMP0"/><line x1="7.5" x2="17.5" y1="10" y2="10" class="cell_$procmux$9_CMP0"/><line x1="7.5" x2="17.5" y1="15" y2="15" class="cell_$procmux$9_CMP0"/><g s:x="2" s:y="5" s:pid="A"/><g s:x="2" s:y="20" s:pid="B"/><g s:x="25" s:y="12.5" s:pid="Y"/></g><g s:type="inputExt" transform="translate(795,1133.5)" s:width="30" s:height="20" id="cell_ALUOp"><text x="15" y="-4" class="nodelabel cell_ALUOp" s:attribute="ref">ALUOp</text><s:alias val="$_inputExt_"/><path d="M0,0 L0,20 L15,20 L30,10 L15,0 Z" fill="#8bcaff" class="cell_ALUOp"/><g s:x="30" s:y="10" s:pid="Y"/></g><g s:type="inputExt" transform="translate(372,656)" s:width="30" s:height="20" id="cell_funct7"><text x="15" y="-4" class="nodelabel cell_funct7" s:attribute="ref">funct7</text><s:alias val="$_inputExt_"/><path d="M0,0 L0,20 L15,20 L30,10 L15,0 Z" fill="#8bcaff" class="cell_funct7"/><g s:x="30" s:y="10" s:pid="Y"/></g><g s:type="inputExt" transform="translate(301,1099.5)" s:width="30" s:height="20" id="cell_funct3"><text x="15" y="-4" class="nodelabel cell_funct3" s:attribute="ref">funct3</text><s:alias val="$_inputExt_"/><path d="M0,0 L0,20 L15,20 L30,10 L15,0 Z" fill="#8bcaff" class="cell_funct3"/><g s:x="30" s:y="10" s:pid="Y"/></g><g s:type="outputExt" transform="translate(1330.5,737)" s:width="30" s:height="20" id="cell_ALU_control"><text x="15" y="-4" class="nodelabel cell_ALU_control" s:attribute="ref">ALU_control</text><s:alias val="$_outputExt_"/><path d="M30,0 L30,20 L15,20 L0,10 L15,0 Z" fill="#169300" class="cell_ALU_control"/><g s:x="0" s:y="10" s:pid="A"/></g><g s:type="constant" transform="translate(795,767)" s:width="30" s:height="20" id="cell_0"><text x="15" y="-4" class="nodelabel cell_0" s:attribute="ref">0</text><s:alias val="$_constant_"/><rect width="30" height="20" fill="#745bff" class="cell_0"/><g s:x="31" s:y="10" s:pid="Y"/></g><g s:type="constant" transform="translate(795,702)" s:width="30" s:height="20" id="cell_x"><text x="15" y="-4" class="nodelabel cell_x" s:attribute="ref">x</text><s:alias val="$_constant_"/><rect width="30" height="20" fill="#745bff" class="cell_x"/><g s:x="31" s:y="10" s:pid="Y"/></g><g s:type="constant" transform="translate(795,832)" s:width="30" s:height="20" id="cell_1"><text x="15" y="-4" class="nodelabel cell_1" s:attribute="ref">1</text><s:alias val="$_constant_"/><rect width="30" height="20" fill="#745bff" class="cell_1"/><g s:x="31" s:y="10" s:pid="Y"/></g><g s:type="constant" transform="translate(12,22.5)" s:width="30" s:height="20" id="cell_00000000000000000000000000000000"><text x="15" y="-4" class="nodelabel cell_00000000000000000000000000000000" s:attribute="ref">0x0</text><s:alias val="$_constant_"/><rect width="30" height="20" fill="#745bff" class="cell_00000000000000000000000000000000"/><g s:x="31" s:y="10" s:pid="Y"/></g><g s:type="constant" transform="translate(12,87.5)" s:width="30" s:height="20" id="cell_xxxxxxxx1010xxxxxxxxxxxxxxxx011000000001100001110101010000110010"><text x="15" y="-4" class="nodelabel cell_xxxxxxxx1010xxxxxxxxxxxxxxxx011000000001100001110101010000110010" s:attribute="ref">0xNaN</text><s:alias val="$_constant_"/><rect width="30" height="20" fill="#745bff" class="cell_xxxxxxxx1010xxxxxxxxxxxxxxxx011000000001100001110101010000110010"/><g s:x="31" s:y="10" s:pid="Y"/></g><g s:type="constant" transform="translate(443,242)" s:width="30" s:height="20" id="cell_1101"><text x="15" y="-4" class="nodelabel cell_1101" s:attribute="ref">0xd</text><s:alias val="$_constant_"/><rect width="30" height="20" fill="#745bff" class="cell_1101"/><g s:x="31" s:y="10" s:pid="Y"/></g><g s:type="constant" transform="translate(443,307)" s:width="30" s:height="20" id="cell_0101"><text x="15" y="-4" class="nodelabel cell_0101" s:attribute="ref">0x5</text><s:alias val="$_constant_"/><rect width="30" height="20" fill="#745bff" class="cell_0101"/><g s:x="31" s:y="10" s:pid="Y"/></g><g s:type="constant" transform="translate(443,720.5)" s:width="30" s:height="20" id="cell_0001"><text x="15" y="-4" class="nodelabel cell_0001" s:attribute="ref">0x1</text><s:alias val="$_constant_"/><rect width="30" height="20" fill="#745bff" class="cell_0001"/><g s:x="31" s:y="10" s:pid="Y"/></g><g s:type="constant" transform="translate(443,830.5)" s:width="30" s:height="20" id="cell_111"><text x="15" y="-4" class="nodelabel cell_111" s:attribute="ref">111</text><s:alias val="$_constant_"/><rect width="30" height="20" fill="#745bff" class="cell_111"/><g s:x="31" s:y="10" s:pid="Y"/></g><g s:type="constant" transform="translate(443,940.5)" s:width="30" s:height="20" id="cell_110"><text x="15" y="-4" class="nodelabel cell_110" s:attribute="ref">110</text><s:alias val="$_constant_"/><rect width="30" height="20" fill="#745bff" class="cell_110"/><g s:x="31" s:y="10" s:pid="Y"/></g><g s:type="constant" transform="translate(443,1050.5)" s:width="30" s:height="20" id="cell_100"><text x="15" y="-4" class="nodelabel cell_100" s:attribute="ref">100</text><s:alias val="$_constant_"/><rect width="30" height="20" fill="#745bff" class="cell_100"/><g s:x="31" s:y="10" s:pid="Y"/></g><g s:type="constant" transform="translate(694,159)" s:width="30" s:height="20" id="cell_xxxx"><text x="15" y="-4" class="nodelabel cell_xxxx" s:attribute="ref">0xNaN</text><s:alias val="$_constant_"/><rect width="30" height="20" fill="#745bff" class="cell_xxxx"/><g s:x="31" s:y="10" s:pid="Y"/></g><g s:type="constant" transform="translate(892,894.5)" s:width="30" s:height="20" id="cell_00100110"><text x="15" y="-4" class="nodelabel cell_00100110" s:attribute="ref">0x26</text><s:alias val="$_constant_"/><rect width="30" height="20" fill="#745bff" class="cell_00100110"/><g s:x="31" s:y="10" s:pid="Y"/></g><g s:type="constant" transform="translate(795,963.5)" s:width="30" s:height="20" id="cell_11"><text x="15" y="-4" class="nodelabel cell_11" s:attribute="ref">11</text><s:alias val="$_constant_"/><rect width="30" height="20" fill="#745bff" class="cell_11"/><g s:x="31" s:y="10" s:pid="Y"/></g><g s:type="constant" transform="translate(795,1198.5)" s:width="30" s:height="20" id="cell_10"><text x="15" y="-4" class="nodelabel cell_10" s:attribute="ref">10</text><s:alias val="$_constant_"/><rect width="30" height="20" fill="#745bff" class="cell_10"/><g s:x="31" s:y="10" s:pid="Y"/></g><g s:type="constant" transform="translate(795,1263.5)" s:width="30" s:height="20" id="cell_01"><text x="15" y="-4" class="nodelabel cell_01" s:attribute="ref">01</text><s:alias val="$_constant_"/><rect width="30" height="20" fill="#745bff" class="cell_01"/><g s:x="31" s:y="10" s:pid="Y"/></g><g s:type="constant" transform="translate(694,224)" s:width="30" s:height="20" id="cell_001001110001000000111000101001000101"><text x="15" y="-4" class="nodelabel cell_001001110001000000111000101001000101" s:attribute="ref">0x271038a45</text><s:alias val="$_constant_"/><rect width="30" height="20" fill="#745bff" class="cell_001001110001000000111000101001000101"/><g s:x="31" s:y="10" s:pid="Y"/></g><g s:type="constant" transform="translate(443,67)" s:width="30" s:height="20" id="cell_011"><text x="15" y="-4" class="nodelabel cell_011" s:attribute="ref">011</text><s:alias val="$_constant_"/><rect width="30" height="20" fill="#745bff" class="cell_011"/><g s:x="31" s:y="10" s:pid="Y"/></g><g s:type="constant" transform="translate(443,177)" s:width="30" s:height="20" id="cell_010"><text x="15" y="-4" class="nodelabel cell_010" s:attribute="ref">010</text><s:alias val="$_constant_"/><rect width="30" height="20" fill="#745bff" class="cell_010"/><g s:x="31" s:y="10" s:pid="Y"/></g><g s:type="join" transform="translate(463,635.5)" s:width="5" s:height="40" id="cell_$join$,5,6,7,4,"><rect width="5" height="40" class="splitjoinBody" s:generic="body"/><s:alias val="$_join_"/><g s:x="5" s:y="20" s:pid="out"/><g transform="translate(-1,10)" s:x="-1" s:y="10" s:pid="in0"><text x="-3" y="-4" class="inputPortLabel">0:2</text></g><g transform="translate(-1,30)" s:x="-1" s:y="10" s:pid="in0"><text x="-3" y="-4" class="inputPortLabel">3</text></g></g><g s:type="join" transform="translate(1151,726.5)" s:width="5" s:height="40" id="cell_$join$,23,24,25,26,12,13,14,15,158,159,160,161,162,163,164,165,"><rect width="5" height="60" class="splitjoinBody" s:generic="body"/><s:alias val="$_join_"/><g s:x="5" s:y="20" s:pid="out"/><g transform="translate(-1,10)" s:x="-1" s:y="10" s:pid="in0"><text x="-3" y="-4" class="inputPortLabel">0:3</text></g><g transform="translate(-1,30)" s:x="-1" s:y="10" s:pid="in0"><text x="-3" y="-4" class="inputPortLabel">4:7</text></g><g transform="translate(-1,50)" s:x="-1" s:y="10" s:pid="in0"><text x="-3" y="-4" class="inputPortLabel">8:15</text></g></g><g s:type="join" transform="translate(1147.2,1035.5)" s:width="5" s:height="40" id="cell_$join$,27,28,29,30,"><rect width="5" height="80" class="splitjoinBody" s:generic="body"/><s:alias val="$_join_"/><g s:x="5" s:y="20" s:pid="out"/><g transform="translate(-1,10)" s:x="-1" s:y="10" s:pid="in0"><text x="-3" y="-4" class="inputPortLabel">0</text></g><g transform="translate(-1,30)" s:x="-1" s:y="10" s:pid="in0"><text x="-3" y="-4" class="inputPortLabel">1</text></g><g transform="translate(-1,50)" s:x="-1" s:y="10" s:pid="in0"><text x="-3" y="-4" class="inputPortLabel">2</text></g><g transform="translate(-1,70)" s:x="-1" s:y="10" s:pid="in0"><text x="-3" y="-4" class="inputPortLabel">3</text></g></g><g s:type="join" transform="translate(706.5,279)" s:width="5" s:height="40" id="cell_$join$,31,32,16,17,18,19,20,21,22,"><rect width="5" height="180" class="splitjoinBody" s:generic="body"/><s:alias val="$_join_"/><g s:x="5" s:y="20" s:pid="out"/><g transform="translate(-1,10)" s:x="-1" s:y="10" s:pid="in0"><text x="-3" y="-4" class="inputPortLabel">0</text></g><g transform="translate(-1,30)" s:x="-1" s:y="10" s:pid="in0"><text x="-3" y="-4" class="inputPortLabel">1</text></g><g transform="translate(-1,50)" s:x="-1" s:y="10" s:pid="in0"><text x="-3" y="-4" class="inputPortLabel">2</text></g><g transform="translate(-1,70)" s:x="-1" s:y="10" s:pid="in0"><text x="-3" y="-4" class="inputPortLabel">3</text></g><g transform="translate(-1,90)" s:x="-1" s:y="10" s:pid="in0"><text x="-3" y="-4" class="inputPortLabel">4</text></g><g transform="translate(-1,110)" s:x="-1" s:y="10" s:pid="in0"><text x="-3" y="-4" class="inputPortLabel">5</text></g><g transform="translate(-1,130)" s:x="-1" s:y="10" s:pid="in0"><text x="-3" y="-4" class="inputPortLabel">6</text></g><g transform="translate(-1,150)" s:x="-1" s:y="10" s:pid="in0"><text x="-3" y="-4" class="inputPortLabel">7</text></g><g transform="translate(-1,170)" s:x="-1" s:y="10" s:pid="in0"><text x="-3" y="-4" class="inputPortLabel">8</text></g></g><line x1="469" x2="856" y1="656" y2="656" class="net_5,6,7,4 width_4" style="stroke-width: 2"/><line x1="856" x2="856" y1="656" y2="757" class="net_5,6,7,4 width_4" style="stroke-width: 2"/><line x1="856" x2="892" y1="757" y2="757" class="net_5,6,7,4 width_4" style="stroke-width: 2"/><line x1="469" x2="484" y1="656" y2="656" class="net_5,6,7,4 width_4" style="stroke-width: 2"/><line x1="484" x2="484" y1="656" y2="232" class="net_5,6,7,4 width_4" style="stroke-width: 2"/><line x1="484" x2="588" y1="232" y2="232" class="net_5,6,7,4 width_4" style="stroke-width: 2"/><line x1="588" x2="588" y1="232" y2="237" class="net_5,6,7,4 width_4" style="stroke-width: 2"/><circle cx="484" cy="656" r="3" style="fill:#000" class="net_5,6,7,4 width_4"/><line x1="588" x2="617.3333333333333" y1="237" y2="237" class="net_5,6,7,4 width_4" style="stroke-width: 2"/><line x1="469" x2="484" y1="656" y2="656" class="net_5,6,7,4 width_4" style="stroke-width: 2"/><line x1="484" x2="484" y1="656" y2="297" class="net_5,6,7,4 width_4" style="stroke-width: 2"/><line x1="484" x2="588" y1="297" y2="297" class="net_5,6,7,4 width_4" style="stroke-width: 2"/><line x1="588" x2="588" y1="297" y2="302" class="net_5,6,7,4 width_4" style="stroke-width: 2"/><circle cx="484" cy="297" r="3" style="fill:#000" class="net_5,6,7,4 width_4"/><line x1="588" x2="617.3333333333333" y1="302" y2="302" class="net_5,6,7,4 width_4" style="stroke-width: 2"/><line x1="469" x2="484" y1="656" y2="656" class="net_5,6,7,4 width_4" style="stroke-width: 2"/><line x1="484" x2="484" y1="656" y2="357" class="net_5,6,7,4 width_4" style="stroke-width: 2"/><line x1="484" x2="588" y1="357" y2="357" class="net_5,6,7,4 width_4" style="stroke-width: 2"/><line x1="588" x2="588" y1="357" y2="362" class="net_5,6,7,4 width_4" style="stroke-width: 2"/><circle cx="484" cy="357" r="3" style="fill:#000" class="net_5,6,7,4 width_4"/><line x1="588" x2="617.3333333333333" y1="362" y2="362" class="net_5,6,7,4 width_4" style="stroke-width: 2"/><line x1="826" x2="891" y1="777" y2="777" class="net_33 width_1" style="stroke-width: 1"/><line x1="826" x2="836" y1="777" y2="777" class="net_33 width_1" style="stroke-width: 1"/><line x1="836" x2="836" y1="777" y2="837" class="net_33 width_1" style="stroke-width: 1"/><circle cx="836" cy="777" r="2" style="fill:#000" class="net_33 width_1"/><line x1="836" x2="891" y1="837" y2="837" class="net_33 width_1" style="stroke-width: 1"/><line x1="826" x2="846" y1="712" y2="712" class="net_34 width_1" style="stroke-width: 1"/><line x1="846" x2="846" y1="712" y2="797" class="net_34 width_1" style="stroke-width: 1"/><line x1="846" x2="891" y1="797" y2="797" class="net_34 width_1" style="stroke-width: 1"/><line x1="826" x2="846" y1="842" y2="842" class="net_35 width_1" style="stroke-width: 1"/><line x1="846" x2="846" y1="842" y2="817" class="net_35 width_1" style="stroke-width: 1"/><line x1="846" x2="891" y1="817" y2="817" class="net_35 width_1" style="stroke-width: 1"/><line x1="43" x2="143" y1="32.5" y2="32.5" class="net_37,38,39,40,41,42,43,44,45,46,47,48,49,50,51,52,53,54,55,56,57,58,59,60,61,62,63,64,65,66,67,68 width_32" style="stroke-width: 2"/><line x1="43" x2="92" y1="97.5" y2="97.5" class="net_69,70,71,72,73,74,75,76,77,78,79,80,81,82,83,84,85,86,87,88,89,90,91,92,93,94,95,96,97,98,99,100,101,102,103,104,105,106,107,108,109,110,111,112,113,114,115,116,117,118,119,120,121,122,123,124,125,126,127,128,129,130,131,132 width_64" style="stroke-width: 2"/><line x1="92" x2="92" y1="97.5" y2="52.5" class="net_69,70,71,72,73,74,75,76,77,78,79,80,81,82,83,84,85,86,87,88,89,90,91,92,93,94,95,96,97,98,99,100,101,102,103,104,105,106,107,108,109,110,111,112,113,114,115,116,117,118,119,120,121,122,123,124,125,126,127,128,129,130,131,132 width_64" style="stroke-width: 2"/><line x1="92" x2="142" y1="52.5" y2="52.5" class="net_69,70,71,72,73,74,75,76,77,78,79,80,81,82,83,84,85,86,87,88,89,90,91,92,93,94,95,96,97,98,99,100,101,102,103,104,105,106,107,108,109,110,111,112,113,114,115,116,117,118,119,120,121,122,123,124,125,126,127,128,129,130,131,132 width_64" style="stroke-width: 2"/><line x1="474" x2="617.3333333333333" y1="252" y2="252" class="net_133,134,135,136 width_4" style="stroke-width: 2"/><line x1="474" x2="617.3333333333333" y1="317" y2="317" class="net_137,138,139,140 width_4" style="stroke-width: 2"/><line x1="474" x2="494" y1="730.5" y2="730.5" class="net_141,142,143,144 width_4" style="stroke-width: 2"/><line x1="494" x2="494" y1="730.5" y2="377" class="net_141,142,143,144 width_4" style="stroke-width: 2"/><line x1="494" x2="617.3333333333333" y1="377" y2="377" class="net_141,142,143,144 width_4" style="stroke-width: 2"/><line x1="331" x2="418" y1="1109.5" y2="1109.5" class="net_5,6,7 width_3" style="stroke-width: 2"/><line x1="418" x2="418" y1="1109.5" y2="779.5" class="net_5,6,7 width_3" style="stroke-width: 2"/><line x1="418" x2="504" y1="779.5" y2="779.5" class="net_5,6,7 width_3" style="stroke-width: 2"/><line x1="504" x2="504" y1="779.5" y2="422" class="net_5,6,7 width_3" style="stroke-width: 2"/><circle cx="418" cy="1109.5" r="3" style="fill:#000" class="net_5,6,7 width_3"/><line x1="504" x2="617.3333333333333" y1="422" y2="422" class="net_5,6,7 width_3" style="stroke-width: 2"/><line x1="331" x2="418" y1="1109.5" y2="1109.5" class="net_5,6,7 width_3" style="stroke-width: 2"/><line x1="418" x2="418" y1="1109.5" y2="889.5" class="net_5,6,7 width_3" style="stroke-width: 2"/><line x1="418" x2="524" y1="889.5" y2="889.5" class="net_5,6,7 width_3" style="stroke-width: 2"/><line x1="524" x2="524" y1="889.5" y2="482" class="net_5,6,7 width_3" style="stroke-width: 2"/><circle cx="418" cy="889.5" r="3" style="fill:#000" class="net_5,6,7 width_3"/><line x1="524" x2="617.3333333333333" y1="482" y2="482" class="net_5,6,7 width_3" style="stroke-width: 2"/><line x1="331" x2="418" y1="1109.5" y2="1109.5" class="net_5,6,7 width_3" style="stroke-width: 2"/><line x1="418" x2="418" y1="1109.5" y2="999.5" class="net_5,6,7 width_3" style="stroke-width: 2"/><line x1="418" x2="544" y1="999.5" y2="999.5" class="net_5,6,7 width_3" style="stroke-width: 2"/><line x1="544" x2="544" y1="999.5" y2="542" class="net_5,6,7 width_3" style="stroke-width: 2"/><circle cx="418" cy="999.5" r="3" style="fill:#000" class="net_5,6,7 width_3"/><line x1="544" x2="617.3333333333333" y1="542" y2="542" class="net_5,6,7 width_3" style="stroke-width: 2"/><line x1="331" x2="564" y1="1109.5" y2="1109.5" class="net_5,6,7 width_3" style="stroke-width: 2"/><line x1="564" x2="564" y1="1109.5" y2="607" class="net_5,6,7 width_3" style="stroke-width: 2"/><line x1="564" x2="613" y1="607" y2="607" class="net_5,6,7 width_3" style="stroke-width: 2"/><line x1="331" x2="347" y1="1109.5" y2="1109.5" class="net_5,6,7 width_3" style="stroke-width: 2"/><line x1="347" x2="347" y1="1109.5" y2="126" class="net_5,6,7 width_3" style="stroke-width: 2"/><line x1="347" x2="418" y1="126" y2="126" class="net_5,6,7 width_3" style="stroke-width: 2"/><line x1="418" x2="418" y1="126" y2="16" class="net_5,6,7 width_3" style="stroke-width: 2"/><line x1="418" x2="588" y1="16" y2="16" class="net_5,6,7 width_3" style="stroke-width: 2"/><line x1="588" x2="588" y1="16" y2="62" class="net_5,6,7 width_3" style="stroke-width: 2"/><circle cx="347" cy="1109.5" r="3" style="fill:#000" class="net_5,6,7 width_3"/><circle cx="418" cy="126" r="3" style="fill:#000" class="net_5,6,7 width_3"/><line x1="588" x2="617.3333333333333" y1="62" y2="62" class="net_5,6,7 width_3" style="stroke-width: 2"/><line x1="331" x2="347" y1="1109.5" y2="1109.5" class="net_5,6,7 width_3" style="stroke-width: 2"/><line x1="347" x2="347" y1="1109.5" y2="126" class="net_5,6,7 width_3" style="stroke-width: 2"/><line x1="347" x2="588" y1="126" y2="126" class="net_5,6,7 width_3" style="stroke-width: 2"/><line x1="588" x2="588" y1="126" y2="172" class="net_5,6,7 width_3" style="stroke-width: 2"/><line x1="588" x2="617.3333333333333" y1="172" y2="172" class="net_5,6,7 width_3" style="stroke-width: 2"/><line x1="331" x2="347" y1="1109.5" y2="1109.5" class="net_5,6,7 width_3" style="stroke-width: 2"/><line x1="347" x2="347" y1="1109.5" y2="605" class="net_5,6,7 width_3" style="stroke-width: 2"/><line x1="347" x2="418" y1="605" y2="605" class="net_5,6,7 width_3" style="stroke-width: 2"/><line x1="418" x2="418" y1="605" y2="646" class="net_5,6,7 width_3" style="stroke-width: 2"/><circle cx="347" cy="605" r="3" style="fill:#000" class="net_5,6,7 width_3"/><line x1="418" x2="462" y1="646" y2="646" class="net_5,6,7 width_3" style="stroke-width: 2"/><line x1="474" x2="514" y1="840.5" y2="840.5" class="net_145,146,147 width_3" style="stroke-width: 2"/><line x1="514" x2="514" y1="840.5" y2="437" class="net_145,146,147 width_3" style="stroke-width: 2"/><line x1="514" x2="617.3333333333333" y1="437" y2="437" class="net_145,146,147 width_3" style="stroke-width: 2"/><line x1="474" x2="534" y1="950.5" y2="950.5" class="net_148,149,150 width_3" style="stroke-width: 2"/><line x1="534" x2="534" y1="950.5" y2="497" class="net_148,149,150 width_3" style="stroke-width: 2"/><line x1="534" x2="617.3333333333333" y1="497" y2="497" class="net_148,149,150 width_3" style="stroke-width: 2"/><line x1="474" x2="554" y1="1060.5" y2="1060.5" class="net_151,152,153 width_3" style="stroke-width: 2"/><line x1="554" x2="554" y1="1060.5" y2="557" class="net_151,152,153 width_3" style="stroke-width: 2"/><line x1="554" x2="617.3333333333333" y1="557" y2="557" class="net_151,152,153 width_3" style="stroke-width: 2"/><line x1="725" x2="770" y1="169" y2="169" class="net_154,155,156,157 width_4" style="stroke-width: 2"/><line x1="770" x2="770" y1="169" y2="154" class="net_154,155,156,157 width_4" style="stroke-width: 2"/><line x1="770" x2="1206" y1="154" y2="154" class="net_154,155,156,157 width_4" style="stroke-width: 2"/><line x1="1206" x2="1206" y1="154" y2="737" class="net_154,155,156,157 width_4" style="stroke-width: 2"/><circle cx="770" cy="169" r="3" style="fill:#000" class="net_154,155,156,157 width_4"/><line x1="1206" x2="1231" y1="737" y2="737" class="net_154,155,156,157 width_4" style="stroke-width: 2"/><line x1="725" x2="836" y1="169" y2="169" class="net_154,155,156,157 width_4" style="stroke-width: 2"/><line x1="836" x2="836" y1="169" y2="214" class="net_154,155,156,157 width_4" style="stroke-width: 2"/><line x1="836" x2="920.3333333333334" y1="214" y2="214" class="net_154,155,156,157 width_4" style="stroke-width: 2"/><line x1="1157" x2="1231" y1="757" y2="757" class="net_23,24,25,26,12,13,14,15,158,159,160,161,162,163,164,165 width_16" style="stroke-width: 2"/><line x1="1153.2" x2="1244" y1="1076" y2="1076" class="net_27,28,29,30 width_4" style="stroke-width: 2"/><line x1="1244" x2="1244" y1="1076" y2="765" class="net_27,28,29,30 width_4" style="stroke-width: 2"/><line x1="825" x2="836" y1="1143.5" y2="1143.5" class="net_2,3 width_2" style="stroke-width: 2"/><line x1="836" x2="836" y1="1143.5" y2="953.5" class="net_2,3 width_2" style="stroke-width: 2"/><line x1="836" x2="1040" y1="953.5" y2="953.5" class="net_2,3 width_2" style="stroke-width: 2"/><line x1="1040" x2="1040" y1="953.5" y2="958.5" class="net_2,3 width_2" style="stroke-width: 2"/><circle cx="836" cy="1143.5" r="3" style="fill:#000" class="net_2,3 width_2"/><line x1="1040" x2="1069.3333333333335" y1="958.5" y2="958.5" class="net_2,3 width_2" style="stroke-width: 2"/><line x1="825" x2="836" y1="1143.5" y2="1143.5" class="net_2,3 width_2" style="stroke-width: 2"/><line x1="836" x2="836" y1="1143.5" y2="1013.5" class="net_2,3 width_2" style="stroke-width: 2"/><line x1="836" x2="1040" y1="1013.5" y2="1013.5" class="net_2,3 width_2" style="stroke-width: 2"/><line x1="1040" x2="1040" y1="1013.5" y2="1018.5" class="net_2,3 width_2" style="stroke-width: 2"/><circle cx="836" cy="1013.5" r="3" style="fill:#000" class="net_2,3 width_2"/><line x1="1040" x2="1069.3333333333335" y1="1018.5" y2="1018.5" class="net_2,3 width_2" style="stroke-width: 2"/><line x1="825" x2="836" y1="1143.5" y2="1143.5" class="net_2,3 width_2" style="stroke-width: 2"/><line x1="836" x2="836" y1="1143.5" y2="1073.5" class="net_2,3 width_2" style="stroke-width: 2"/><line x1="836" x2="1040" y1="1073.5" y2="1073.5" class="net_2,3 width_2" style="stroke-width: 2"/><line x1="1040" x2="1040" y1="1073.5" y2="1078.5" class="net_2,3 width_2" style="stroke-width: 2"/><circle cx="836" cy="1073.5" r="3" style="fill:#000" class="net_2,3 width_2"/><line x1="1040" x2="1069.3333333333335" y1="1078.5" y2="1078.5" class="net_2,3 width_2" style="stroke-width: 2"/><line x1="825" x2="1065" y1="1143.5" y2="1143.5" class="net_2,3 width_2" style="stroke-width: 2"/><line x1="826" x2="1069.3333333333335" y1="973.5" y2="973.5" class="net_166,167 width_2" style="stroke-width: 2"/><line x1="826" x2="846" y1="1208.5" y2="1208.5" class="net_168,169 width_2" style="stroke-width: 2"/><line x1="846" x2="846" y1="1208.5" y2="1033.5" class="net_168,169 width_2" style="stroke-width: 2"/><line x1="846" x2="1069.3333333333335" y1="1033.5" y2="1033.5" class="net_168,169 width_2" style="stroke-width: 2"/><line x1="826" x2="856" y1="1273.5" y2="1273.5" class="net_170,171 width_2" style="stroke-width: 2"/><line x1="856" x2="856" y1="1273.5" y2="1093.5" class="net_170,171 width_2" style="stroke-width: 2"/><line x1="856" x2="1069.3333333333335" y1="1093.5" y2="1093.5" class="net_170,171 width_2" style="stroke-width: 2"/><line x1="725" x2="920.3333333333334" y1="234" y2="234" class="net_176,177,178,179,180,181,182,183,184,185,186,187,188,189,190,191,192,193,194,195,196,197,198,199,200,201,202,203,204,205,206,207,208,209,210,211 width_36" style="stroke-width: 2"/><line x1="712.5" x2="933.3333333333334" y1="369.5" y2="369.5" class="net_31,32,16,17,18,19,20,21,22 width_9" style="stroke-width: 2"/><line x1="933.3333333333334" x2="933.3333333333334" y1="369.5" y2="242" class="net_31,32,16,17,18,19,20,21,22 width_9" style="stroke-width: 2"/><line x1="474" x2="617.3333333333333" y1="77" y2="77" class="net_212,213,214 width_3" style="stroke-width: 2"/><line x1="474" x2="617.3333333333333" y1="187" y2="187" class="net_215,216,217 width_3" style="stroke-width: 2"/><line x1="1256.5" x2="1330.5" y1="747" y2="747" class="net_8,9,10,11 width_4" style="stroke-width: 2"/><line x1="402" x2="462" y1="666" y2="666" class="net_4 width_1" style="stroke-width: 1"/><line x1="945.8333333333334" x2="1106" y1="224" y2="224" class="net_23,24,25,26 width_4" style="stroke-width: 2"/><line x1="1106" x2="1106" y1="224" y2="737" class="net_23,24,25,26 width_4" style="stroke-width: 2"/><line x1="1106" x2="1150" y1="737" y2="737" class="net_23,24,25,26 width_4" style="stroke-width: 2"/><line x1="923" x2="1150" y1="757" y2="757" class="net_12,13,14,15 width_4" style="stroke-width: 2"/><line x1="923" x2="1106" y1="904.5" y2="904.5" class="net_158,159,160,161,162,163,164,165 width_8" style="stroke-width: 2"/><line x1="1106" x2="1106" y1="904.5" y2="777" class="net_158,159,160,161,162,163,164,165 width_8" style="stroke-width: 2"/><line x1="1106" x2="1150" y1="777" y2="777" class="net_158,159,160,161,162,163,164,165 width_8" style="stroke-width: 2"/><line x1="1092.3333333333335" x2="1116" y1="966" y2="966" class="net_27 width_1" style="stroke-width: 1"/><line x1="1116" x2="1116" y1="966" y2="1046" class="net_27 width_1" style="stroke-width: 1"/><line x1="1116" x2="1146.2" y1="1046" y2="1046" class="net_27 width_1" style="stroke-width: 1"/><line x1="1092.3333333333335" x2="1106" y1="1026" y2="1026" class="net_28 width_1" style="stroke-width: 1"/><line x1="1106" x2="1106" y1="1026" y2="1066" class="net_28 width_1" style="stroke-width: 1"/><line x1="1106" x2="1146.2" y1="1066" y2="1066" class="net_28 width_1" style="stroke-width: 1"/><line x1="1092.3333333333335" x2="1146.2" y1="1086" y2="1086" class="net_29 width_1" style="stroke-width: 1"/><line x1="1093" x2="1106" y1="1143.5" y2="1143.5" class="net_30 width_1" style="stroke-width: 1"/><line x1="1106" x2="1106" y1="1143.5" y2="1106" class="net_30 width_1" style="stroke-width: 1"/><line x1="1106" x2="1146.2" y1="1106" y2="1106" class="net_30 width_1" style="stroke-width: 1"/><line x1="640.3333333333333" x2="684" y1="69.5" y2="69.5" class="net_31 width_1" style="stroke-width: 1"/><line x1="684" x2="684" y1="69.5" y2="289.5" class="net_31 width_1" style="stroke-width: 1"/><line x1="684" x2="705.5" y1="289.5" y2="289.5" class="net_31 width_1" style="stroke-width: 1"/><line x1="640.3333333333333" x2="674" y1="179.5" y2="179.5" class="net_32 width_1" style="stroke-width: 1"/><line x1="674" x2="674" y1="179.5" y2="309.5" class="net_32 width_1" style="stroke-width: 1"/><line x1="674" x2="705.5" y1="309.5" y2="309.5" class="net_32 width_1" style="stroke-width: 1"/><line x1="640.3333333333333" x2="664" y1="244.5" y2="244.5" class="net_16 width_1" style="stroke-width: 1"/><line x1="664" x2="664" y1="244.5" y2="329.5" class="net_16 width_1" style="stroke-width: 1"/><line x1="664" x2="705.5" y1="329.5" y2="329.5" class="net_16 width_1" style="stroke-width: 1"/><line x1="640.3333333333333" x2="654" y1="309.5" y2="309.5" class="net_17 width_1" style="stroke-width: 1"/><line x1="654" x2="654" y1="309.5" y2="349.5" class="net_17 width_1" style="stroke-width: 1"/><line x1="654" x2="705.5" y1="349.5" y2="349.5" class="net_17 width_1" style="stroke-width: 1"/><line x1="640.3333333333333" x2="705.5" y1="369.5" y2="369.5" class="net_18 width_1" style="stroke-width: 1"/><line x1="640.3333333333333" x2="654" y1="429.5" y2="429.5" class="net_19 width_1" style="stroke-width: 1"/><line x1="654" x2="654" y1="429.5" y2="389.5" class="net_19 width_1" style="stroke-width: 1"/><line x1="654" x2="705.5" y1="389.5" y2="389.5" class="net_19 width_1" style="stroke-width: 1"/><line x1="640.3333333333333" x2="664" y1="489.5" y2="489.5" class="net_20 width_1" style="stroke-width: 1"/><line x1="664" x2="664" y1="489.5" y2="409.5" class="net_20 width_1" style="stroke-width: 1"/><line x1="664" x2="705.5" y1="409.5" y2="409.5" class="net_20 width_1" style="stroke-width: 1"/><line x1="640.3333333333333" x2="674" y1="549.5" y2="549.5" class="net_21 width_1" style="stroke-width: 1"/><line x1="674" x2="674" y1="549.5" y2="429.5" class="net_21 width_1" style="stroke-width: 1"/><line x1="674" x2="705.5" y1="429.5" y2="429.5" class="net_21 width_1" style="stroke-width: 1"/><line x1="641" x2="684" y1="607" y2="607" class="net_22 width_1" style="stroke-width: 1"/><line x1="684" x2="684" y1="607" y2="449.5" class="net_22 width_1" style="stroke-width: 1"/><line x1="684" x2="705.5" y1="449.5" y2="449.5" class="net_22 width_1" style="stroke-width: 1"/><rect x="575" y="352" width="16" height="9" class="net_5,6,7,4 width_4 busLabel_4" style="fill: white; stroke: none"/><text x="574" y="360" class="net_5,6,7,4 width_4 busLabel_4">/4/</text><rect x="575" y="352" width="16" height="9" class="net_5,6,7,4 width_4 busLabel_4" style="fill: white; stroke: none"/><text x="574" y="360" class="net_5,6,7,4 width_4 busLabel_4">/4/</text><rect x="575" y="352" width="16" height="9" class="net_5,6,7,4 width_4 busLabel_4" style="fill: white; stroke: none"/><text x="574" y="360" class="net_5,6,7,4 width_4 busLabel_4">/4/</text><rect x="575" y="352" width="16" height="9" class="net_5,6,7,4 width_4 busLabel_4" style="fill: white; stroke: none"/><text x="574" y="360" class="net_5,6,7,4 width_4 busLabel_4">/4/</text><rect x="79" y="27.5" width="22" height="9" class="net_37,38,39,40,41,42,43,44,45,46,47,48,49,50,51,52,53,54,55,56,57,58,59,60,61,62,63,64,65,66,67,68 width_32 busLabel_32" style="fill: white; stroke: none"/><text x="78" y="35.5" class="net_37,38,39,40,41,42,43,44,45,46,47,48,49,50,51,52,53,54,55,56,57,58,59,60,61,62,63,64,65,66,67,68 width_32 busLabel_32">/32/</text><rect x="79" y="92.5" width="22" height="9" class="net_69,70,71,72,73,74,75,76,77,78,79,80,81,82,83,84,85,86,87,88,89,90,91,92,93,94,95,96,97,98,99,100,101,102,103,104,105,106,107,108,109,110,111,112,113,114,115,116,117,118,119,120,121,122,123,124,125,126,127,128,129,130,131,132 width_64 busLabel_64" style="fill: white; stroke: none"/><text x="78" y="100.5" class="net_69,70,71,72,73,74,75,76,77,78,79,80,81,82,83,84,85,86,87,88,89,90,91,92,93,94,95,96,97,98,99,100,101,102,103,104,105,106,107,108,109,110,111,112,113,114,115,116,117,118,119,120,121,122,123,124,125,126,127,128,129,130,131,132 width_64 busLabel_64">/64/</text><rect x="575" y="247" width="16" height="9" class="net_133,134,135,136 width_4 busLabel_4" style="fill: white; stroke: none"/><text x="574" y="255" class="net_133,134,135,136 width_4 busLabel_4">/4/</text><rect x="575" y="312" width="16" height="9" class="net_137,138,139,140 width_4 busLabel_4" style="fill: white; stroke: none"/><text x="574" y="320" class="net_137,138,139,140 width_4 busLabel_4">/4/</text><rect x="575" y="372" width="16" height="9" class="net_141,142,143,144 width_4 busLabel_4" style="fill: white; stroke: none"/><text x="574" y="380" class="net_141,142,143,144 width_4 busLabel_4">/4/</text><rect x="389" y="600" width="16" height="9" class="net_5,6,7 width_3 busLabel_3" style="fill: white; stroke: none"/><text x="388" y="608" class="net_5,6,7 width_3 busLabel_3">/3/</text><rect x="389" y="600" width="16" height="9" class="net_5,6,7 width_3 busLabel_3" style="fill: white; stroke: none"/><text x="388" y="608" class="net_5,6,7 width_3 busLabel_3">/3/</text><rect x="389" y="600" width="16" height="9" class="net_5,6,7 width_3 busLabel_3" style="fill: white; stroke: none"/><text x="388" y="608" class="net_5,6,7 width_3 busLabel_3">/3/</text><rect x="389" y="600" width="16" height="9" class="net_5,6,7 width_3 busLabel_3" style="fill: white; stroke: none"/><text x="388" y="608" class="net_5,6,7 width_3 busLabel_3">/3/</text><rect x="389" y="600" width="16" height="9" class="net_5,6,7 width_3 busLabel_3" style="fill: white; stroke: none"/><text x="388" y="608" class="net_5,6,7 width_3 busLabel_3">/3/</text><rect x="389" y="600" width="16" height="9" class="net_5,6,7 width_3 busLabel_3" style="fill: white; stroke: none"/><text x="388" y="608" class="net_5,6,7 width_3 busLabel_3">/3/</text><rect x="389" y="600" width="16" height="9" class="net_5,6,7 width_3 busLabel_3" style="fill: white; stroke: none"/><text x="388" y="608" class="net_5,6,7 width_3 busLabel_3">/3/</text><rect x="575" y="432" width="16" height="9" class="net_145,146,147 width_3 busLabel_3" style="fill: white; stroke: none"/><text x="574" y="440" class="net_145,146,147 width_3 busLabel_3">/3/</text><rect x="575" y="492" width="16" height="9" class="net_148,149,150 width_3 busLabel_3" style="fill: white; stroke: none"/><text x="574" y="500" class="net_148,149,150 width_3 busLabel_3">/3/</text><rect x="575" y="552" width="16" height="9" class="net_151,152,153 width_3 busLabel_3" style="fill: white; stroke: none"/><text x="574" y="560" class="net_151,152,153 width_3 busLabel_3">/3/</text><rect x="809.5" y="164" width="16" height="9" class="net_154,155,156,157 width_4 busLabel_4" style="fill: white; stroke: none"/><text x="808.5" y="172" class="net_154,155,156,157 width_4 busLabel_4">/4/</text><rect x="809.5" y="164" width="16" height="9" class="net_154,155,156,157 width_4 busLabel_4" style="fill: white; stroke: none"/><text x="808.5" y="172" class="net_154,155,156,157 width_4 busLabel_4">/4/</text><rect x="1193" y="752" width="22" height="9" class="net_23,24,25,26,12,13,14,15,158,159,160,161,162,163,164,165 width_16 busLabel_16" style="fill: white; stroke: none"/><text x="1192" y="760" class="net_23,24,25,26,12,13,14,15,158,159,160,161,162,163,164,165 width_16 busLabel_16">/16/</text><rect x="1193" y="1071" width="16" height="9" class="net_27,28,29,30 width_4 busLabel_4" style="fill: white; stroke: none"/><text x="1192" y="1079" class="net_27,28,29,30 width_4 busLabel_4">/4/</text><rect x="947" y="1138.5" width="16" height="9" class="net_2,3 width_2 busLabel_2" style="fill: white; stroke: none"/><text x="946" y="1146.5" class="net_2,3 width_2 busLabel_2">/2/</text><rect x="947" y="1138.5" width="16" height="9" class="net_2,3 width_2 busLabel_2" style="fill: white; stroke: none"/><text x="946" y="1146.5" class="net_2,3 width_2 busLabel_2">/2/</text><rect x="947" y="1138.5" width="16" height="9" class="net_2,3 width_2 busLabel_2" style="fill: white; stroke: none"/><text x="946" y="1146.5" class="net_2,3 width_2 busLabel_2">/2/</text><rect x="947" y="1138.5" width="16" height="9" class="net_2,3 width_2 busLabel_2" style="fill: white; stroke: none"/><text x="946" y="1146.5" class="net_2,3 width_2 busLabel_2">/2/</text><rect x="947" y="968.5" width="16" height="9" class="net_166,167 width_2 busLabel_2" style="fill: white; stroke: none"/><text x="946" y="976.5" class="net_166,167 width_2 busLabel_2">/2/</text><rect x="947" y="1028.5" width="16" height="9" class="net_168,169 width_2 busLabel_2" style="fill: white; stroke: none"/><text x="946" y="1036.5" class="net_168,169 width_2 busLabel_2">/2/</text><rect x="947" y="1088.5" width="16" height="9" class="net_170,171 width_2 busLabel_2" style="fill: white; stroke: none"/><text x="946" y="1096.5" class="net_170,171 width_2 busLabel_2">/2/</text><rect x="809.5" y="229" width="22" height="9" class="net_176,177,178,179,180,181,182,183,184,185,186,187,188,189,190,191,192,193,194,195,196,197,198,199,200,201,202,203,204,205,206,207,208,209,210,211 width_36 busLabel_36" style="fill: white; stroke: none"/><text x="808.5" y="237" class="net_176,177,178,179,180,181,182,183,184,185,186,187,188,189,190,191,192,193,194,195,196,197,198,199,200,201,202,203,204,205,206,207,208,209,210,211 width_36 busLabel_36">/36/</text><rect x="809.5" y="364.5" width="16" height="9" class="net_31,32,16,17,18,19,20,21,22 width_9 busLabel_9" style="fill: white; stroke: none"/><text x="808.5" y="372.5" class="net_31,32,16,17,18,19,20,21,22 width_9 busLabel_9">/9/</text><rect x="575" y="72" width="16" height="9" class="net_212,213,214 width_3 busLabel_3" style="fill: white; stroke: none"/><text x="574" y="80" class="net_212,213,214 width_3 busLabel_3">/3/</text><rect x="575" y="182" width="16" height="9" class="net_215,216,217 width_3 busLabel_3" style="fill: white; stroke: none"/><text x="574" y="190" class="net_215,216,217 width_3 busLabel_3">/3/</text><rect x="1292.5" y="742" width="16" height="9" class="net_8,9,10,11 width_4 busLabel_4" style="fill: white; stroke: none"/><text x="1291.5" y="750" class="net_8,9,10,11 width_4 busLabel_4">/4/</text><rect x="1079.5" y="219" width="16" height="9" class="net_23,24,25,26 width_4 busLabel_4" style="fill: white; stroke: none"/><text x="1078.5" y="227" class="net_23,24,25,26 width_4 busLabel_4">/4/</text><rect x="1079.5" y="752" width="16" height="9" class="net_12,13,14,15 width_4 busLabel_4" style="fill: white; stroke: none"/><text x="1078.5" y="760" class="net_12,13,14,15 width_4 busLabel_4">/4/</text><rect x="1079.5" y="899.5" width="16" height="9" class="net_158,159,160,161,162,163,164,165 width_8 busLabel_8" style="fill: white; stroke: none"/><text x="1078.5" y="907.5" class="net_158,159,160,161,162,163,164,165 width_8 busLabel_8">/8/</text></svg>