<svg xmlns="http://www.w3.org/2000/svg" xmlns:xlink="http://www.w3.org/1999/xlink" xmlns:s="https://github.com/nturley/netlistsvg" width="619" height="557">  <style>svg {
    stroke:#000;
    fill:none;
    background-color:white;
  }
text {
  fill:#000;
  stroke:none;
  font-size:10px;
  font-weight: bold;
  font-family: "Courier New", monospace;
}
line {
    stroke-linecap: round;
}
.nodelabel {
  text-anchor: middle;
}
.inputPortLabel {
  text-anchor: end;
}
.splitjoinBody {
  fill:#000;
}</style><g s:type="mux" transform="translate(420.3333333333333,43)" s:width="20" s:height="40" id="cell_$procmux$13"><s:alias val="$pmux"/><s:alias val="$mux"/><s:alias val="$_MUX_"/><path d="M0,0 L20,10 L20,30 L0,40 Z" fill="#ffffff" class="cell_$procmux$13"/><text x="5" y="32" class="nodelabel cell_$procmux$13" s:attribute="">1</text><text x="5" y="13" class="nodelabel cell_$procmux$13" s:attribute="">0</text><g s:x="0" s:y="10" s:pid="A"/><g s:x="0" s:y="30" s:pid="B"/><g s:x="10" s:y="35" s:pid="S"/><g s:x="20" s:y="20" s:pid="Y"/></g><g s:type="eq" transform="translate(263.33333333333337,295.5)" s:width="25" s:height="25" id="cell_$procmux$14_CMP0"><s:alias val="$eq"/><circle r="12.5" cx="12.5" cy="12.5" fill="#ffc9c3" class="cell_$procmux$14_CMP0"/><line x1="7.5" x2="17.5" y1="10" y2="10" class="cell_$procmux$14_CMP0"/><line x1="7.5" x2="17.5" y1="15" y2="15" class="cell_$procmux$14_CMP0"/><g s:x="2" s:y="5" s:pid="A"/><g s:x="2" s:y="20" s:pid="B"/><g s:x="25" s:y="12.5" s:pid="Y"/></g><g s:type="eq" transform="translate(263.33333333333337,465)" s:width="25" s:height="25" id="cell_$procmux$15_CMP0"><s:alias val="$eq"/><circle r="12.5" cx="12.5" cy="12.5" fill="#ffc9c3" class="cell_$procmux$15_CMP0"/><line x1="7.5" x2="17.5" y1="10" y2="10" class="cell_$procmux$15_CMP0"/><line x1="7.5" x2="17.5" y1="15" y2="15" class="cell_$procmux$15_CMP0"/><g s:x="2" s:y="5" s:pid="A"/><g s:x="2" s:y="20" s:pid="B"/><g s:x="25" s:y="12.5" s:pid="Y"/></g><g s:type="not" transform="translate(262,525)" s:width="30" s:height="20" id="cell_$procmux$16_CMP0"><s:alias val="$_NOT_"/><s:alias val="$not"/><s:alias val="$logic_not"/><path d="M0,0 L0,20 L20,10 Z" fill="#eebaff" class="cell_$procmux$16_CMP0"/><circle cx="24" cy="10" r="3" fill="#eebaff" class="cell_$procmux$16_CMP0"/><g s:x="-1" s:y="10" s:pid="A"/><g s:x="27" s:y="10" s:pid="Y"/></g><g s:type="mux" transform="translate(486,12)" s:width="20" s:height="40" id="cell_$procmux$21"><s:alias val="$pmux"/><s:alias val="$mux"/><s:alias val="$_MUX_"/><path d="M0,0 L20,10 L20,30 L0,40 Z" fill="#ffffff" class="cell_$procmux$21"/><text x="5" y="32" class="nodelabel cell_$procmux$21" s:attribute="">1</text><text x="5" y="13" class="nodelabel cell_$procmux$21" s:attribute="">0</text><g s:x="0" s:y="10" s:pid="A"/><g s:x="0" s:y="30" s:pid="B"/><g s:x="10" s:y="35" s:pid="S"/><g s:x="20" s:y="20" s:pid="Y"/></g><g s:type="mux" transform="translate(265,235.5)" s:width="20" s:height="40" id="cell_$ternary$BranchJudge.v:12$5"><s:alias val="$pmux"/><s:alias val="$mux"/><s:alias val="$_MUX_"/><path d="M0,0 L20,10 L20,30 L0,40 Z" fill="#ffffff" class="cell_$ternary$BranchJudge.v:12$5"/><text x="5" y="32" class="nodelabel cell_$ternary$BranchJudge.v:12$5" s:attribute="">1</text><text x="5" y="13" class="nodelabel cell_$ternary$BranchJudge.v:12$5" s:attribute="">0</text><g s:x="0" s:y="10" s:pid="A"/><g s:x="0" s:y="30" s:pid="B"/><g s:x="10" s:y="35" s:pid="S"/><g s:x="20" s:y="20" s:pid="Y"/></g><g s:type="mux" transform="translate(265,138)" s:width="20" s:height="40" id="cell_$ternary$BranchJudge.v:13$8"><s:alias val="$pmux"/><s:alias val="$mux"/><s:alias val="$_MUX_"/><path d="M0,0 L20,10 L20,30 L0,40 Z" fill="#ffffff" class="cell_$ternary$BranchJudge.v:13$8"/><text x="5" y="32" class="nodelabel cell_$ternary$BranchJudge.v:13$8" s:attribute="">1</text><text x="5" y="13" class="nodelabel cell_$ternary$BranchJudge.v:13$8" s:attribute="">0</text><g s:x="0" s:y="10" s:pid="A"/><g s:x="0" s:y="30" s:pid="B"/><g s:x="10" s:y="35" s:pid="S"/><g s:x="20" s:y="20" s:pid="Y"/></g><g s:type="mux" transform="translate(265,33)" s:width="20" s:height="40" id="cell_$ternary$BranchJudge.v:14$11"><s:alias val="$pmux"/><s:alias val="$mux"/><s:alias val="$_MUX_"/><path d="M0,0 L20,10 L20,30 L0,40 Z" fill="#ffffff" class="cell_$ternary$BranchJudge.v:14$11"/><text x="5" y="32" class="nodelabel cell_$ternary$BranchJudge.v:14$11" s:attribute="">1</text><text x="5" y="13" class="nodelabel cell_$ternary$BranchJudge.v:14$11" s:attribute="">0</text><g s:x="0" s:y="10" s:pid="A"/><g s:x="0" s:y="30" s:pid="B"/><g s:x="10" s:y="35" s:pid="S"/><g s:x="20" s:y="20" s:pid="Y"/></g><g s:type="reduce_xor" transform="translate(193,365)" s:width="33" s:height="25" id="cell_$xor$BranchJudge.v:12$3"><s:alias val="$xor"/><s:alias val="$reduce_xor"/><s:alias val="$_XOR_"/><path d="M3,0 A30 25 0 0 1 3,25 A30 25 0 0 0 33,12.5 A30 25 0 0 0 3,0" fill="#eebaff" class="cell_$xor$BranchJudge.v:12$3"/><path d="M0,0 A30 25 0 0 1 0,25" class="cell_$xor$BranchJudge.v:12$3"/><g s:x="2" s:y="5" s:pid="A"/><g s:x="2" s:y="20" s:pid="B"/><g s:x="33" s:y="12.5" s:pid="Y"/></g><g s:type="reduce_xor" transform="translate(193,213)" s:width="33" s:height="25" id="cell_$xor$BranchJudge.v:13$6"><s:alias val="$xor"/><s:alias val="$reduce_xor"/><s:alias val="$_XOR_"/><path d="M3,0 A30 25 0 0 1 3,25 A30 25 0 0 0 33,12.5 A30 25 0 0 0 3,0" fill="#eebaff" class="cell_$xor$BranchJudge.v:13$6"/><path d="M0,0 A30 25 0 0 1 0,25" class="cell_$xor$BranchJudge.v:13$6"/><g s:x="2" s:y="5" s:pid="A"/><g s:x="2" s:y="20" s:pid="B"/><g s:x="33" s:y="12.5" s:pid="Y"/></g><g s:type="reduce_xor" transform="translate(193,88)" s:width="33" s:height="25" id="cell_$xor$BranchJudge.v:14$9"><s:alias val="$xor"/><s:alias val="$reduce_xor"/><s:alias val="$_XOR_"/><path d="M3,0 A30 25 0 0 1 3,25 A30 25 0 0 0 33,12.5 A30 25 0 0 0 3,0" fill="#eebaff" class="cell_$xor$BranchJudge.v:14$9"/><path d="M0,0 A30 25 0 0 1 0,25" class="cell_$xor$BranchJudge.v:14$9"/><g s:x="2" s:y="5" s:pid="A"/><g s:x="2" s:y="20" s:pid="B"/><g s:x="33" s:y="12.5" s:pid="Y"/></g><g s:type="inputExt" transform="translate(122,375)" s:width="30" s:height="20" id="cell_zero"><text x="15" y="-4" class="nodelabel cell_zero" s:attribute="ref">zero</text><s:alias val="$_inputExt_"/><path d="M0,0 L0,20 L15,20 L30,10 L15,0 Z" fill="#8bcaff" class="cell_zero"/><g s:x="30" s:y="10" s:pid="Y"/></g><g s:type="inputExt" transform="translate(122,223)" s:width="30" s:height="20" id="cell_s_less"><text x="15" y="-4" class="nodelabel cell_s_less" s:attribute="ref">s_less</text><s:alias val="$_inputExt_"/><path d="M0,0 L0,20 L15,20 L30,10 L15,0 Z" fill="#8bcaff" class="cell_s_less"/><g s:x="30" s:y="10" s:pid="Y"/></g><g s:type="inputExt" transform="translate(122,98)" s:width="30" s:height="20" id="cell_u_less"><text x="15" y="-4" class="nodelabel cell_u_less" s:attribute="ref">u_less</text><s:alias val="$_inputExt_"/><path d="M0,0 L0,20 L15,20 L30,10 L15,0 Z" fill="#8bcaff" class="cell_u_less"/><g s:x="30" s:y="10" s:pid="Y"/></g><g s:type="inputExt" transform="translate(415,348)" s:width="30" s:height="20" id="cell_Branch"><text x="15" y="-4" class="nodelabel cell_Branch" s:attribute="ref">Branch</text><s:alias val="$_inputExt_"/><path d="M0,0 L0,20 L15,20 L30,10 L15,0 Z" fill="#8bcaff" class="cell_Branch"/><g s:x="30" s:y="10" s:pid="Y"/></g><g s:type="inputExt" transform="translate(12,300.5)" s:width="30" s:height="20" id="cell_funct3"><text x="15" y="-4" class="nodelabel cell_funct3" s:attribute="ref">funct3</text><s:alias val="$_inputExt_"/><path d="M0,0 L0,20 L15,20 L30,10 L15,0 Z" fill="#8bcaff" class="cell_funct3"/><g s:x="30" s:y="10" s:pid="Y"/></g><g s:type="outputExt" transform="translate(541,22)" s:width="30" s:height="20" id="cell_Branch_jump"><text x="15" y="-4" class="nodelabel cell_Branch_jump" s:attribute="ref">Branch_jump</text><s:alias val="$_outputExt_"/><path d="M30,0 L30,20 L15,20 L0,10 L15,0 Z" fill="#169300" class="cell_Branch_jump"/><g s:x="0" s:y="10" s:pid="A"/></g><g s:type="constant" transform="translate(195,33)" s:width="30" s:height="20" id="cell_0"><text x="15" y="-4" class="nodelabel cell_0" s:attribute="ref">0</text><s:alias val="$_constant_"/><rect width="30" height="20" fill="#745bff" class="cell_0"/><g s:x="31" s:y="10" s:pid="Y"/></g><g s:type="constant" transform="translate(122,440)" s:width="30" s:height="20" id="cell_11"><text x="15" y="-4" class="nodelabel cell_11" s:attribute="ref">11</text><s:alias val="$_constant_"/><rect width="30" height="20" fill="#745bff" class="cell_11"/><g s:x="31" s:y="10" s:pid="Y"/></g><g s:type="constant" transform="translate(122,505)" s:width="30" s:height="20" id="cell_10"><text x="15" y="-4" class="nodelabel cell_10" s:attribute="ref">10</text><s:alias val="$_constant_"/><rect width="30" height="20" fill="#745bff" class="cell_10"/><g s:x="31" s:y="10" s:pid="Y"/></g><g s:type="constant" transform="translate(195,158)" s:width="30" s:height="20" id="cell_1"><text x="15" y="-4" class="nodelabel cell_1" s:attribute="ref">1</text><s:alias val="$_constant_"/><rect width="30" height="20" fill="#745bff" class="cell_1"/><g s:x="31" s:y="10" s:pid="Y"/></g><g s:type="join" transform="translate(335,42.5)" s:width="5" s:height="40" id="cell_$join$,10,11,12,"><rect width="5" height="60" class="splitjoinBody" s:generic="body"/><s:alias val="$_join_"/><g s:x="5" s:y="20" s:pid="out"/><g transform="translate(-1,10)" s:x="-1" s:y="10" s:pid="in0"><text x="-3" y="-4" class="inputPortLabel">0</text></g><g transform="translate(-1,30)" s:x="-1" s:y="10" s:pid="in0"><text x="-3" y="-4" class="inputPortLabel">1</text></g><g transform="translate(-1,50)" s:x="-1" s:y="10" s:pid="in0"><text x="-3" y="-4" class="inputPortLabel">2</text></g></g><g s:type="join" transform="translate(335,297.5)" s:width="5" s:height="40" id="cell_$join$,13,14,15,"><rect width="5" height="60" class="splitjoinBody" s:generic="body"/><s:alias val="$_join_"/><g s:x="5" s:y="20" s:pid="out"/><g transform="translate(-1,10)" s:x="-1" s:y="10" s:pid="in0"><text x="-3" y="-4" class="inputPortLabel">0</text></g><g transform="translate(-1,30)" s:x="-1" s:y="10" s:pid="in0"><text x="-3" y="-4" class="inputPortLabel">1</text></g><g transform="translate(-1,50)" s:x="-1" s:y="10" s:pid="in0"><text x="-3" y="-4" class="inputPortLabel">2</text></g></g><g s:type="split" transform="translate(133,290)" s:width="5" s:height="40" id="cell_$split$,6,7,8,"><rect width="5" height="40" class="splitjoinBody" s:generic="body"/><s:alias val="$_split_"/><g s:x="-1" s:y="20" s:pid="in"/><g transform="translate(5,10)" s:x="5" s:y="10" s:pid="out0"><text x="5" y="-4">1:2</text></g><g transform="translate(5,30)" s:x="5" s:y="10" s:pid="out0"><text x="5" y="-4">0</text></g></g><line x1="226" x2="246" y1="43" y2="43" class="net_20 width_1" style="stroke-width: 1"/><line x1="246" x2="246" y1="43" y2="22" class="net_20 width_1" style="stroke-width: 1"/><line x1="246" x2="390" y1="22" y2="22" class="net_20 width_1" style="stroke-width: 1"/><line x1="390" x2="390" y1="22" y2="53" class="net_20 width_1" style="stroke-width: 1"/><circle cx="246" cy="43" r="2" style="fill:#000" class="net_20 width_1"/><circle cx="390" cy="22" r="2" style="fill:#000" class="net_20 width_1"/><line x1="390" x2="420.3333333333333" y1="53" y2="53" class="net_20 width_1" style="stroke-width: 1"/><line x1="226" x2="246" y1="43" y2="43" class="net_20 width_1" style="stroke-width: 1"/><line x1="246" x2="246" y1="43" y2="22" class="net_20 width_1" style="stroke-width: 1"/><line x1="246" x2="486" y1="22" y2="22" class="net_20 width_1" style="stroke-width: 1"/><line x1="226" x2="246" y1="43" y2="43" class="net_20 width_1" style="stroke-width: 1"/><line x1="246" x2="246" y1="43" y2="245.5" class="net_20 width_1" style="stroke-width: 1"/><line x1="246" x2="265" y1="245.5" y2="245.5" class="net_20 width_1" style="stroke-width: 1"/><line x1="226" x2="246" y1="43" y2="43" class="net_20 width_1" style="stroke-width: 1"/><line x1="246" x2="246" y1="43" y2="148" class="net_20 width_1" style="stroke-width: 1"/><circle cx="246" cy="148" r="2" style="fill:#000" class="net_20 width_1"/><line x1="246" x2="265" y1="148" y2="148" class="net_20 width_1" style="stroke-width: 1"/><line x1="226" x2="265" y1="43" y2="43" class="net_20 width_1" style="stroke-width: 1"/><line x1="341" x2="420.3333333333333" y1="73" y2="73" class="net_10,11,12 width_3" style="stroke-width: 2"/><line x1="341" x2="430.3333333333333" y1="328" y2="328" class="net_13,14,15 width_3" style="stroke-width: 2"/><line x1="430.3333333333333" x2="430.3333333333333" y1="328" y2="78" class="net_13,14,15 width_3" style="stroke-width: 2"/><line x1="139" x2="265.33333333333337" y1="300.5" y2="300.5" class="net_7,8 width_2" style="stroke-width: 2"/><line x1="139" x2="178" y1="300.5" y2="300.5" class="net_7,8 width_2" style="stroke-width: 2"/><line x1="178" x2="178" y1="300.5" y2="470" class="net_7,8 width_2" style="stroke-width: 2"/><circle cx="178" cy="300.5" r="3" style="fill:#000" class="net_7,8 width_2"/><circle cx="178" cy="470" r="3" style="fill:#000" class="net_7,8 width_2"/><line x1="178" x2="265.33333333333337" y1="470" y2="470" class="net_7,8 width_2" style="stroke-width: 2"/><line x1="139" x2="178" y1="300.5" y2="300.5" class="net_7,8 width_2" style="stroke-width: 2"/><line x1="178" x2="178" y1="300.5" y2="535" class="net_7,8 width_2" style="stroke-width: 2"/><line x1="178" x2="261" y1="535" y2="535" class="net_7,8 width_2" style="stroke-width: 2"/><line x1="153" x2="246" y1="450" y2="450" class="net_21,22 width_2" style="stroke-width: 2"/><line x1="246" x2="246" y1="450" y2="315.5" class="net_21,22 width_2" style="stroke-width: 2"/><line x1="246" x2="265.33333333333337" y1="315.5" y2="315.5" class="net_21,22 width_2" style="stroke-width: 2"/><line x1="153" x2="236" y1="515" y2="515" class="net_23,24 width_2" style="stroke-width: 2"/><line x1="236" x2="236" y1="515" y2="485" class="net_23,24 width_2" style="stroke-width: 2"/><line x1="236" x2="265.33333333333337" y1="485" y2="485" class="net_23,24 width_2" style="stroke-width: 2"/><line x1="440.3333333333333" x2="461" y1="63" y2="63" class="net_16 width_1" style="stroke-width: 1"/><line x1="461" x2="461" y1="63" y2="42" class="net_16 width_1" style="stroke-width: 1"/><line x1="461" x2="486" y1="42" y2="42" class="net_16 width_1" style="stroke-width: 1"/><line x1="445" x2="496" y1="358" y2="358" class="net_5 width_1" style="stroke-width: 1"/><line x1="496" x2="496" y1="358" y2="47" class="net_5 width_1" style="stroke-width: 1"/><line x1="226" x2="236" y1="168" y2="168" class="net_27 width_1" style="stroke-width: 1"/><line x1="236" x2="236" y1="168" y2="265.5" class="net_27 width_1" style="stroke-width: 1"/><circle cx="236" cy="168" r="2" style="fill:#000" class="net_27 width_1"/><line x1="236" x2="265" y1="265.5" y2="265.5" class="net_27 width_1" style="stroke-width: 1"/><line x1="226" x2="265" y1="168" y2="168" class="net_27 width_1" style="stroke-width: 1"/><line x1="226" x2="236" y1="168" y2="168" class="net_27 width_1" style="stroke-width: 1"/><line x1="236" x2="236" y1="168" y2="63" class="net_27 width_1" style="stroke-width: 1"/><line x1="236" x2="265" y1="63" y2="63" class="net_27 width_1" style="stroke-width: 1"/><line x1="226" x2="236" y1="377.5" y2="377.5" class="net_17 width_1" style="stroke-width: 1"/><line x1="236" x2="236" y1="377.5" y2="285.5" class="net_17 width_1" style="stroke-width: 1"/><line x1="236" x2="275" y1="285.5" y2="285.5" class="net_17 width_1" style="stroke-width: 1"/><line x1="275" x2="275" y1="285.5" y2="270.5" class="net_17 width_1" style="stroke-width: 1"/><line x1="226" x2="275" y1="225.5" y2="225.5" class="net_18 width_1" style="stroke-width: 1"/><line x1="275" x2="275" y1="225.5" y2="173" class="net_18 width_1" style="stroke-width: 1"/><line x1="226" x2="275" y1="100.5" y2="100.5" class="net_19 width_1" style="stroke-width: 1"/><line x1="275" x2="275" y1="100.5" y2="68" class="net_19 width_1" style="stroke-width: 1"/><line x1="139" x2="168" y1="320.5" y2="320.5" class="net_6 width_1" style="stroke-width: 1"/><line x1="168" x2="168" y1="320.5" y2="370" class="net_6 width_1" style="stroke-width: 1"/><circle cx="168" cy="320.5" r="2" style="fill:#000" class="net_6 width_1"/><line x1="168" x2="195" y1="370" y2="370" class="net_6 width_1" style="stroke-width: 1"/><line x1="139" x2="168" y1="320.5" y2="320.5" class="net_6 width_1" style="stroke-width: 1"/><line x1="168" x2="168" y1="320.5" y2="218" class="net_6 width_1" style="stroke-width: 1"/><circle cx="168" cy="218" r="2" style="fill:#000" class="net_6 width_1"/><line x1="168" x2="195" y1="218" y2="218" class="net_6 width_1" style="stroke-width: 1"/><line x1="139" x2="168" y1="320.5" y2="320.5" class="net_6 width_1" style="stroke-width: 1"/><line x1="168" x2="168" y1="320.5" y2="93" class="net_6 width_1" style="stroke-width: 1"/><line x1="168" x2="195" y1="93" y2="93" class="net_6 width_1" style="stroke-width: 1"/><line x1="152" x2="195" y1="385" y2="385" class="net_2 width_1" style="stroke-width: 1"/><line x1="152" x2="195" y1="233" y2="233" class="net_3 width_1" style="stroke-width: 1"/><line x1="152" x2="195" y1="108" y2="108" class="net_4 width_1" style="stroke-width: 1"/><line x1="506" x2="541" y1="32" y2="32" class="net_9 width_1" style="stroke-width: 1"/><line x1="285" x2="334" y1="53" y2="53" class="net_10 width_1" style="stroke-width: 1"/><line x1="285" x2="302" y1="158" y2="158" class="net_11 width_1" style="stroke-width: 1"/><line x1="302" x2="302" y1="158" y2="73" class="net_11 width_1" style="stroke-width: 1"/><line x1="302" x2="334" y1="73" y2="73" class="net_11 width_1" style="stroke-width: 1"/><line x1="285" x2="312" y1="255.5" y2="255.5" class="net_12 width_1" style="stroke-width: 1"/><line x1="312" x2="312" y1="255.5" y2="93" class="net_12 width_1" style="stroke-width: 1"/><line x1="312" x2="334" y1="93" y2="93" class="net_12 width_1" style="stroke-width: 1"/><line x1="288.33333333333337" x2="334" y1="308" y2="308" class="net_13 width_1" style="stroke-width: 1"/><line x1="288.33333333333337" x2="302" y1="477.5" y2="477.5" class="net_14 width_1" style="stroke-width: 1"/><line x1="302" x2="302" y1="477.5" y2="328" class="net_14 width_1" style="stroke-width: 1"/><line x1="302" x2="334" y1="328" y2="328" class="net_14 width_1" style="stroke-width: 1"/><line x1="289" x2="312" y1="535" y2="535" class="net_15 width_1" style="stroke-width: 1"/><line x1="312" x2="312" y1="535" y2="348" class="net_15 width_1" style="stroke-width: 1"/><line x1="312" x2="334" y1="348" y2="348" class="net_15 width_1" style="stroke-width: 1"/><line x1="42" x2="132" y1="310.5" y2="310.5" class="net_6,7,8 width_3" style="stroke-width: 2"/><rect x="377" y="68" width="16" height="9" class="net_10,11,12 width_3 busLabel_3" style="fill: white; stroke: none"/><text x="376" y="76" class="net_10,11,12 width_3 busLabel_3">/3/</text><rect x="377" y="323" width="16" height="9" class="net_13,14,15 width_3 busLabel_3" style="fill: white; stroke: none"/><text x="376" y="331" class="net_13,14,15 width_3 busLabel_3">/3/</text><rect x="208.5" y="530" width="16" height="9" class="net_7,8 width_2 busLabel_2" style="fill: white; stroke: none"/><text x="207.5" y="538" class="net_7,8 width_2 busLabel_2">/2/</text><rect x="208.5" y="530" width="16" height="9" class="net_7,8 width_2 busLabel_2" style="fill: white; stroke: none"/><text x="207.5" y="538" class="net_7,8 width_2 busLabel_2">/2/</text><rect x="208.5" y="530" width="16" height="9" class="net_7,8 width_2 busLabel_2" style="fill: white; stroke: none"/><text x="207.5" y="538" class="net_7,8 width_2 busLabel_2">/2/</text><rect x="208.5" y="445" width="16" height="9" class="net_21,22 width_2 busLabel_2" style="fill: white; stroke: none"/><text x="207.5" y="453" class="net_21,22 width_2 busLabel_2">/2/</text><rect x="208.5" y="510" width="16" height="9" class="net_23,24 width_2 busLabel_2" style="fill: white; stroke: none"/><text x="207.5" y="518" class="net_23,24 width_2 busLabel_2">/2/</text><rect x="84" y="305.5" width="16" height="9" class="net_6,7,8 width_3 busLabel_3" style="fill: white; stroke: none"/><text x="83" y="313.5" class="net_6,7,8 width_3 busLabel_3">/3/</text></svg>