<svg xmlns="http://www.w3.org/2000/svg" xmlns:xlink="http://www.w3.org/1999/xlink" xmlns:s="https://github.com/nturley/netlistsvg" width="942.5" height="509"><style>svg {
  stroke:#000;
  fill:none;
}
text {
  fill:#000;
  stroke:none;
  font-size:10px;
  font-weight: bold;
  font-family: "Courier New", monospace;
}
line {
    stroke-linecap: round;
}
.nodelabel {
  text-anchor: middle;
}
.inputPortLabel {
  text-anchor: end;
}
.splitjoinBody {
  fill:#000;
}</style><g s:type="generic" transform="translate(294,112)" s:width="30" s:height="40" id="cell_$auto$opt_reduce.cc:128:opt_pmux$12"><text x="15" y="-4" class="nodelabel cell_$auto$opt_reduce.cc:128:opt_pmux$12" s:attribute="ref">$reduce_or</text><rect width="30" height="20" s:generic="body" fill="#ffae46" rx="0" class="cell_$auto$opt_reduce.cc:128:opt_pmux$12"/><g transform="translate(0,10)" s:x="0" s:y="10" s:pid="in0" id="port_$auto$opt_reduce.cc:128:opt_pmux$12~A"><text x="-3" y="-4" class="inputPortLabel cell_$auto$opt_reduce.cc:128:opt_pmux$12">A</text></g><g transform="translate(30,10)" s:x="30" s:y="10" s:pid="out0" id="port_$auto$opt_reduce.cc:128:opt_pmux$12~Y"><text x="5" y="-4" style="fill:#000; stroke:none" class="cell_$auto$opt_reduce.cc:128:opt_pmux$12">Y</text></g></g><g s:type="eq" transform="translate(353.3333333333333,375)" s:width="25" s:height="25" id="cell_$procmux$10_CMP0"><s:alias val="$eq"/><circle r="12.5" cx="12.5" cy="12.5" fill="#ffc9c3" class="cell_$procmux$10_CMP0"/><line x1="7.5" x2="17.5" y1="10" y2="10" class="cell_$procmux$10_CMP0"/><line x1="7.5" x2="17.5" y1="15" y2="15" class="cell_$procmux$10_CMP0"/><g s:x="2" s:y="5" s:pid="A"/><g s:x="2" s:y="20" s:pid="B"/><g s:x="25" s:y="12.5" s:pid="Y"/></g><g s:type="eq" transform="translate(353.3333333333333,435)" s:width="25" s:height="25" id="cell_$procmux$11_CMP0"><s:alias val="$eq"/><circle r="12.5" cx="12.5" cy="12.5" fill="#ffc9c3" class="cell_$procmux$11_CMP0"/><line x1="7.5" x2="17.5" y1="10" y2="10" class="cell_$procmux$11_CMP0"/><line x1="7.5" x2="17.5" y1="15" y2="15" class="cell_$procmux$11_CMP0"/><g s:x="2" s:y="5" s:pid="A"/><g s:x="2" s:y="20" s:pid="B"/><g s:x="25" s:y="12.5" s:pid="Y"/></g><g s:type="mux-bus" transform="translate(681,262)" s:width="24" s:height="40" id="cell_$procmux$4"><s:alias val="$pmux-bus"/><s:alias val="$mux-bus"/><s:alias val="$_MUX_-bus"/><path d="M8,2 L8,0 L24,8 L24,32 L8,40 L8,38" fill="#ffffff" class="cell_$procmux$4"/><path d="M4,2 L4,0 L22,9 L22,31 L4,40 L4,38" fill="#ffffff" class="cell_$procmux$4"/><path d="M0,0 L20,10 L20,30 L0,40 Z" fill="#ffffff" class="cell_$procmux$4"/><text x="5" y="32" class="nodelabel cell_$procmux$4" s:attribute="">1</text><text x="5" y="13" class="nodelabel cell_$procmux$4" s:attribute="">0</text><g s:x="-1" s:y="10" s:pid="A"/><g s:x="-1" s:y="30" s:pid="B"/><g s:x="12" s:y="38" s:pid="S"/><g s:x="24.5" s:y="20" s:pid="Y"/></g><g s:type="eq" transform="translate(122,55)" s:width="25" s:height="25" id="cell_$procmux$5_CMP0"><s:alias val="$eq"/><circle r="12.5" cx="12.5" cy="12.5" fill="#ffc9c3" class="cell_$procmux$5_CMP0"/><line x1="7.5" x2="17.5" y1="10" y2="10" class="cell_$procmux$5_CMP0"/><line x1="7.5" x2="17.5" y1="15" y2="15" class="cell_$procmux$5_CMP0"/><g s:x="2" s:y="5" s:pid="A"/><g s:x="2" s:y="20" s:pid="B"/><g s:x="25" s:y="12.5" s:pid="Y"/></g><g s:type="eq" transform="translate(122,120)" s:width="25" s:height="25" id="cell_$procmux$6_CMP0"><s:alias val="$eq"/><circle r="12.5" cx="12.5" cy="12.5" fill="#ffc9c3" class="cell_$procmux$6_CMP0"/><line x1="7.5" x2="17.5" y1="10" y2="10" class="cell_$procmux$6_CMP0"/><line x1="7.5" x2="17.5" y1="15" y2="15" class="cell_$procmux$6_CMP0"/><g s:x="2" s:y="5" s:pid="A"/><g s:x="2" s:y="20" s:pid="B"/><g s:x="25" s:y="12.5" s:pid="Y"/></g><g s:type="eq" transform="translate(353.3333333333333,195)" s:width="25" s:height="25" id="cell_$procmux$7_CMP0"><s:alias val="$eq"/><circle r="12.5" cx="12.5" cy="12.5" fill="#ffc9c3" class="cell_$procmux$7_CMP0"/><line x1="7.5" x2="17.5" y1="10" y2="10" class="cell_$procmux$7_CMP0"/><line x1="7.5" x2="17.5" y1="15" y2="15" class="cell_$procmux$7_CMP0"/><g s:x="2" s:y="5" s:pid="A"/><g s:x="2" s:y="20" s:pid="B"/><g s:x="25" s:y="12.5" s:pid="Y"/></g><g s:type="eq" transform="translate(353.3333333333333,255)" s:width="25" s:height="25" id="cell_$procmux$8_CMP0"><s:alias val="$eq"/><circle r="12.5" cx="12.5" cy="12.5" fill="#ffc9c3" class="cell_$procmux$8_CMP0"/><line x1="7.5" x2="17.5" y1="10" y2="10" class="cell_$procmux$8_CMP0"/><line x1="7.5" x2="17.5" y1="15" y2="15" class="cell_$procmux$8_CMP0"/><g s:x="2" s:y="5" s:pid="A"/><g s:x="2" s:y="20" s:pid="B"/><g s:x="25" s:y="12.5" s:pid="Y"/></g><g s:type="eq" transform="translate(353.3333333333333,315)" s:width="25" s:height="25" id="cell_$procmux$9_CMP0"><s:alias val="$eq"/><circle r="12.5" cx="12.5" cy="12.5" fill="#ffc9c3" class="cell_$procmux$9_CMP0"/><line x1="7.5" x2="17.5" y1="10" y2="10" class="cell_$procmux$9_CMP0"/><line x1="7.5" x2="17.5" y1="15" y2="15" class="cell_$procmux$9_CMP0"/><g s:x="2" s:y="5" s:pid="A"/><g s:x="2" s:y="20" s:pid="B"/><g s:x="25" s:y="12.5" s:pid="Y"/></g><g s:type="inputExt" transform="translate(12,294)" s:width="30" s:height="20" id="cell_Opcode"><text x="15" y="-4" class="nodelabel cell_Opcode" s:attribute="ref">Opcode</text><s:alias val="$_inputExt_"/><path d="M0,0 L0,20 L15,20 L30,10 L15,0 Z" fill="#8bcaff" class="cell_Opcode"/><g s:x="30" s:y="10" s:pid="Y"/></g><g s:type="outputExt" transform="translate(882.5,22)" s:width="30" s:height="20" id="cell_ALUSrc"><text x="15" y="-4" class="nodelabel cell_ALUSrc" s:attribute="ref">ALUSrc</text><s:alias val="$_outputExt_"/><path d="M30,0 L30,20 L15,20 L0,10 L15,0 Z" fill="#169300" class="cell_ALUSrc"/><g s:x="0" s:y="10" s:pid="A"/></g><g s:type="outputExt" transform="translate(882.5,87)" s:width="30" s:height="20" id="cell_MemtoReg"><text x="15" y="-4" class="nodelabel cell_MemtoReg" s:attribute="ref">MemtoReg</text><s:alias val="$_outputExt_"/><path d="M30,0 L30,20 L15,20 L0,10 L15,0 Z" fill="#169300" class="cell_MemtoReg"/><g s:x="0" s:y="10" s:pid="A"/></g><g s:type="outputExt" transform="translate(882.5,152)" s:width="30" s:height="20" id="cell_RegWrite"><text x="15" y="-4" class="nodelabel cell_RegWrite" s:attribute="ref">RegWrite</text><s:alias val="$_outputExt_"/><path d="M30,0 L30,20 L15,20 L0,10 L15,0 Z" fill="#169300" class="cell_RegWrite"/><g s:x="0" s:y="10" s:pid="A"/></g><g s:type="outputExt" transform="translate(882.5,217)" s:width="30" s:height="20" id="cell_MemRead"><text x="15" y="-4" class="nodelabel cell_MemRead" s:attribute="ref">MemRead</text><s:alias val="$_outputExt_"/><path d="M30,0 L30,20 L15,20 L0,10 L15,0 Z" fill="#169300" class="cell_MemRead"/><g s:x="0" s:y="10" s:pid="A"/></g><g s:type="outputExt" transform="translate(882.5,282)" s:width="30" s:height="20" id="cell_MemWrite"><text x="15" y="-4" class="nodelabel cell_MemWrite" s:attribute="ref">MemWrite</text><s:alias val="$_outputExt_"/><path d="M30,0 L30,20 L15,20 L0,10 L15,0 Z" fill="#169300" class="cell_MemWrite"/><g s:x="0" s:y="10" s:pid="A"/></g><g s:type="outputExt" transform="translate(882.5,347)" s:width="30" s:height="20" id="cell_Branch"><text x="15" y="-4" class="nodelabel cell_Branch" s:attribute="ref">Branch</text><s:alias val="$_outputExt_"/><path d="M30,0 L30,20 L15,20 L0,10 L15,0 Z" fill="#169300" class="cell_Branch"/><g s:x="0" s:y="10" s:pid="A"/></g><g s:type="outputExt" transform="translate(882.5,412)" s:width="30" s:height="20" id="cell_Jump"><text x="15" y="-4" class="nodelabel cell_Jump" s:attribute="ref">Jump</text><s:alias val="$_outputExt_"/><path d="M30,0 L30,20 L15,20 L0,10 L15,0 Z" fill="#169300" class="cell_Jump"/><g s:x="0" s:y="10" s:pid="A"/></g><g s:type="outputExt" transform="translate(882.5,477)" s:width="30" s:height="20" id="cell_ALUOp"><text x="15" y="-4" class="nodelabel cell_ALUOp" s:attribute="ref">ALUOp</text><s:alias val="$_outputExt_"/><path d="M30,0 L30,20 L15,20 L0,10 L15,0 Z" fill="#169300" class="cell_ALUOp"/><g s:x="0" s:y="10" s:pid="A"/></g><g s:type="constant" transform="translate(182,385)" s:width="30" s:height="20" id="cell_0000011"><text x="15" y="-4" class="nodelabel cell_0000011" s:attribute="ref">0x3</text><s:alias val="$_constant_"/><rect width="30" height="20" fill="#745bff" class="cell_0000011"/><g s:x="31" s:y="10" s:pid="Y"/></g><g s:type="constant" transform="translate(182,445)" s:width="30" s:height="20" id="cell_0110011"><text x="15" y="-4" class="nodelabel cell_0110011" s:attribute="ref">0x33</text><s:alias val="$_constant_"/><rect width="30" height="20" fill="#745bff" class="cell_0110011"/><g s:x="31" s:y="10" s:pid="Y"/></g><g s:type="constant" transform="translate(564,217)" s:width="30" s:height="20" id="cell_xxxxxxxxx"><text x="15" y="-4" class="nodelabel cell_xxxxxxxxx" s:attribute="ref">0xNaN</text><s:alias val="$_constant_"/><rect width="30" height="20" fill="#745bff" class="cell_xxxxxxxxx"/><g s:x="31" s:y="10" s:pid="Y"/></g><g s:type="constant" transform="translate(564,282)" s:width="30" s:height="20" id="cell_0010000101111000001x00100000x0001001101000011111xx0100"><text x="15" y="-4" class="nodelabel cell_0010000101111000001x00100000x0001001101000011111xx0100" s:attribute="ref">0x10bc1</text><s:alias val="$_constant_"/><rect width="30" height="20" fill="#745bff" class="cell_0010000101111000001x00100000x0001001101000011111xx0100"/><g s:x="31" s:y="10" s:pid="Y"/></g><g s:type="constant" transform="translate(12,65)" s:width="30" s:height="20" id="cell_1101111"><text x="15" y="-4" class="nodelabel cell_1101111" s:attribute="ref">0x6f</text><s:alias val="$_constant_"/><rect width="30" height="20" fill="#745bff" class="cell_1101111"/><g s:x="31" s:y="10" s:pid="Y"/></g><g s:type="constant" transform="translate(12,130)" s:width="30" s:height="20" id="cell_1100111"><text x="15" y="-4" class="nodelabel cell_1100111" s:attribute="ref">0x67</text><s:alias val="$_constant_"/><rect width="30" height="20" fill="#745bff" class="cell_1100111"/><g s:x="31" s:y="10" s:pid="Y"/></g><g s:type="constant" transform="translate(182,205)" s:width="30" s:height="20" id="cell_0010011"><text x="15" y="-4" class="nodelabel cell_0010011" s:attribute="ref">0x13</text><s:alias val="$_constant_"/><rect width="30" height="20" fill="#745bff" class="cell_0010011"/><g s:x="31" s:y="10" s:pid="Y"/></g><g s:type="constant" transform="translate(182,265)" s:width="30" s:height="20" id="cell_1100011"><text x="15" y="-4" class="nodelabel cell_1100011" s:attribute="ref">0x63</text><s:alias val="$_constant_"/><rect width="30" height="20" fill="#745bff" class="cell_1100011"/><g s:x="31" s:y="10" s:pid="Y"/></g><g s:type="constant" transform="translate(182,325)" s:width="30" s:height="20" id="cell_0100011"><text x="15" y="-4" class="nodelabel cell_0100011" s:attribute="ref">0x23</text><s:alias val="$_constant_"/><rect width="30" height="20" fill="#745bff" class="cell_0100011"/><g s:x="31" s:y="10" s:pid="Y"/></g><g s:type="join" transform="translate(193.33333333333334,102)" s:width="5" s:height="40" id="cell_$join$,18,19,"><rect width="5" height="40" class="splitjoinBody" s:generic="body"/><s:alias val="$_join_"/><g s:x="5" s:y="20" s:pid="out"/><g transform="translate(-1,10)" s:x="-1" s:y="10" s:pid="in0"><text x="-3" y="-4" class="inputPortLabel">0</text></g><g transform="translate(-1,30)" s:x="-1" s:y="10" s:pid="in0"><text x="-3" y="-4" class="inputPortLabel">1</text></g></g><g s:type="join" transform="translate(575,337)" s:width="5" s:height="40" id="cell_$join$,20,23,24,25,21,22,"><rect width="5" height="120" class="splitjoinBody" s:generic="body"/><s:alias val="$_join_"/><g s:x="5" s:y="20" s:pid="out"/><g transform="translate(-1,10)" s:x="-1" s:y="10" s:pid="in0"><text x="-3" y="-4" class="inputPortLabel">0</text></g><g transform="translate(-1,30)" s:x="-1" s:y="10" s:pid="in0"><text x="-3" y="-4" class="inputPortLabel">1</text></g><g transform="translate(-1,50)" s:x="-1" s:y="10" s:pid="in0"><text x="-3" y="-4" class="inputPortLabel">2</text></g><g transform="translate(-1,70)" s:x="-1" s:y="10" s:pid="in0"><text x="-3" y="-4" class="inputPortLabel">3</text></g><g transform="translate(-1,90)" s:x="-1" s:y="10" s:pid="in0"><text x="-3" y="-4" class="inputPortLabel">4</text></g><g transform="translate(-1,110)" s:x="-1" s:y="10" s:pid="in0"><text x="-3" y="-4" class="inputPortLabel">5</text></g></g><g s:type="split" transform="translate(780.5,201.5)" s:width="5" s:height="40" id="cell_$split$,16,17,15,14,13,12,11,10,9,"><rect width="5" height="160" class="splitjoinBody" s:generic="body"/><s:alias val="$_split_"/><g s:x="-1" s:y="20" s:pid="in"/><g transform="translate(5,10)" s:x="5" s:y="10" s:pid="out0"><text x="5" y="-4">8</text></g><g transform="translate(5,30)" s:x="5" s:y="10" s:pid="out0"><text x="5" y="-4">7</text></g><g transform="translate(5,50)" s:x="5" s:y="10" s:pid="out0"><text x="5" y="-4">6</text></g><g transform="translate(5,70)" s:x="5" s:y="10" s:pid="out0"><text x="5" y="-4">5</text></g><g transform="translate(5,90)" s:x="5" s:y="10" s:pid="out0"><text x="5" y="-4">4</text></g><g transform="translate(5,110)" s:x="5" s:y="10" s:pid="out0"><text x="5" y="-4">3</text></g><g transform="translate(5,130)" s:x="5" s:y="10" s:pid="out0"><text x="5" y="-4">2</text></g><g transform="translate(5,150)" s:x="5" s:y="10" s:pid="out0"><text x="5" y="-4">0:1</text></g></g><line x1="199.33333333333334" x2="294" y1="122.5" y2="122.5" class="net_18,19 width_2" style="stroke-width: 2"/><line x1="42" x2="97" y1="304" y2="304" class="net_2,3,4,5,6,7,8 width_7" style="stroke-width: 2"/><line x1="97" x2="97" y1="304" y2="364" class="net_2,3,4,5,6,7,8 width_7" style="stroke-width: 2"/><line x1="97" x2="262" y1="364" y2="364" class="net_2,3,4,5,6,7,8 width_7" style="stroke-width: 2"/><line x1="262" x2="262" y1="364" y2="380" class="net_2,3,4,5,6,7,8 width_7" style="stroke-width: 2"/><circle cx="97" cy="364" r="3" style="fill:#000" class="net_2,3,4,5,6,7,8 width_7"/><line x1="262" x2="355.3333333333333" y1="380" y2="380" class="net_2,3,4,5,6,7,8 width_7" style="stroke-width: 2"/><line x1="42" x2="97" y1="304" y2="304" class="net_2,3,4,5,6,7,8 width_7" style="stroke-width: 2"/><line x1="97" x2="97" y1="304" y2="424" class="net_2,3,4,5,6,7,8 width_7" style="stroke-width: 2"/><line x1="97" x2="262" y1="424" y2="424" class="net_2,3,4,5,6,7,8 width_7" style="stroke-width: 2"/><line x1="262" x2="262" y1="424" y2="440" class="net_2,3,4,5,6,7,8 width_7" style="stroke-width: 2"/><line x1="262" x2="355.3333333333333" y1="440" y2="440" class="net_2,3,4,5,6,7,8 width_7" style="stroke-width: 2"/><line x1="42" x2="58" y1="304" y2="304" class="net_2,3,4,5,6,7,8 width_7" style="stroke-width: 2"/><line x1="58" x2="58" y1="304" y2="55" class="net_2,3,4,5,6,7,8 width_7" style="stroke-width: 2"/><line x1="58" x2="97" y1="55" y2="55" class="net_2,3,4,5,6,7,8 width_7" style="stroke-width: 2"/><line x1="97" x2="97" y1="55" y2="60" class="net_2,3,4,5,6,7,8 width_7" style="stroke-width: 2"/><circle cx="58" cy="304" r="3" style="fill:#000" class="net_2,3,4,5,6,7,8 width_7"/><line x1="97" x2="124" y1="60" y2="60" class="net_2,3,4,5,6,7,8 width_7" style="stroke-width: 2"/><line x1="42" x2="58" y1="304" y2="304" class="net_2,3,4,5,6,7,8 width_7" style="stroke-width: 2"/><line x1="58" x2="58" y1="304" y2="120" class="net_2,3,4,5,6,7,8 width_7" style="stroke-width: 2"/><line x1="58" x2="97" y1="120" y2="120" class="net_2,3,4,5,6,7,8 width_7" style="stroke-width: 2"/><line x1="97" x2="97" y1="120" y2="125" class="net_2,3,4,5,6,7,8 width_7" style="stroke-width: 2"/><circle cx="58" cy="120" r="3" style="fill:#000" class="net_2,3,4,5,6,7,8 width_7"/><line x1="97" x2="124" y1="125" y2="125" class="net_2,3,4,5,6,7,8 width_7" style="stroke-width: 2"/><line x1="42" x2="97" y1="304" y2="304" class="net_2,3,4,5,6,7,8 width_7" style="stroke-width: 2"/><line x1="97" x2="97" y1="304" y2="184" class="net_2,3,4,5,6,7,8 width_7" style="stroke-width: 2"/><line x1="97" x2="262" y1="184" y2="184" class="net_2,3,4,5,6,7,8 width_7" style="stroke-width: 2"/><line x1="262" x2="262" y1="184" y2="200" class="net_2,3,4,5,6,7,8 width_7" style="stroke-width: 2"/><circle cx="97" cy="304" r="3" style="fill:#000" class="net_2,3,4,5,6,7,8 width_7"/><line x1="262" x2="355.3333333333333" y1="200" y2="200" class="net_2,3,4,5,6,7,8 width_7" style="stroke-width: 2"/><line x1="42" x2="97" y1="304" y2="304" class="net_2,3,4,5,6,7,8 width_7" style="stroke-width: 2"/><line x1="97" x2="97" y1="304" y2="244" class="net_2,3,4,5,6,7,8 width_7" style="stroke-width: 2"/><line x1="97" x2="262" y1="244" y2="244" class="net_2,3,4,5,6,7,8 width_7" style="stroke-width: 2"/><line x1="262" x2="262" y1="244" y2="260" class="net_2,3,4,5,6,7,8 width_7" style="stroke-width: 2"/><circle cx="97" cy="244" r="3" style="fill:#000" class="net_2,3,4,5,6,7,8 width_7"/><line x1="262" x2="355.3333333333333" y1="260" y2="260" class="net_2,3,4,5,6,7,8 width_7" style="stroke-width: 2"/><line x1="42" x2="262" y1="304" y2="304" class="net_2,3,4,5,6,7,8 width_7" style="stroke-width: 2"/><line x1="262" x2="262" y1="304" y2="320" class="net_2,3,4,5,6,7,8 width_7" style="stroke-width: 2"/><line x1="262" x2="355.3333333333333" y1="320" y2="320" class="net_2,3,4,5,6,7,8 width_7" style="stroke-width: 2"/><line x1="213" x2="355.3333333333333" y1="395" y2="395" class="net_26,27,28,29,30,31,32 width_7" style="stroke-width: 2"/><line x1="213" x2="355.3333333333333" y1="455" y2="455" class="net_33,34,35,36,37,38,39 width_7" style="stroke-width: 2"/><line x1="595" x2="655" y1="227" y2="227" class="net_40,41,42,43,44,45,46,47,48 width_9" style="stroke-width: 2"/><line x1="655" x2="655" y1="227" y2="272" class="net_40,41,42,43,44,45,46,47,48 width_9" style="stroke-width: 2"/><line x1="655" x2="680" y1="272" y2="272" class="net_40,41,42,43,44,45,46,47,48 width_9" style="stroke-width: 2"/><line x1="595" x2="680" y1="292" y2="292" class="net_49,50,51,52,53,54,55,56,57,58,59,60,61,62,63,64,65,66,67,68,69,70,71,72,73,74,75,76,77,78,79,80,81,82,83,84,85,86,87,88,89,90,91,92,93,94,95,96,97,98,99,100,101,102 width_54" style="stroke-width: 2"/><line x1="581" x2="693" y1="397.5" y2="397.5" class="net_20,23,24,25,21,22 width_6" style="stroke-width: 2"/><line x1="693" x2="693" y1="397.5" y2="300" class="net_20,23,24,25,21,22 width_6" style="stroke-width: 2"/><line x1="43" x2="124" y1="75" y2="75" class="net_103,104,105,106,107,108,109 width_7" style="stroke-width: 2"/><line x1="43" x2="124" y1="140" y2="140" class="net_110,111,112,113,114,115,116 width_7" style="stroke-width: 2"/><line x1="213" x2="355.3333333333333" y1="215" y2="215" class="net_117,118,119,120,121,122,123 width_7" style="stroke-width: 2"/><line x1="213" x2="355.3333333333333" y1="275" y2="275" class="net_124,125,126,127,128,129,130 width_7" style="stroke-width: 2"/><line x1="213" x2="355.3333333333333" y1="335" y2="335" class="net_131,132,133,134,135,136,137 width_7" style="stroke-width: 2"/><line x1="786.5" x2="803.5" y1="212" y2="212" class="net_9 width_1" style="stroke-width: 1"/><line x1="803.5" x2="803.5" y1="212" y2="32" class="net_9 width_1" style="stroke-width: 1"/><line x1="803.5" x2="882.5" y1="32" y2="32" class="net_9 width_1" style="stroke-width: 1"/><line x1="786.5" x2="813.5" y1="232" y2="232" class="net_10 width_1" style="stroke-width: 1"/><line x1="813.5" x2="813.5" y1="232" y2="97" class="net_10 width_1" style="stroke-width: 1"/><line x1="813.5" x2="882.5" y1="97" y2="97" class="net_10 width_1" style="stroke-width: 1"/><line x1="786.5" x2="823.5" y1="252" y2="252" class="net_11 width_1" style="stroke-width: 1"/><line x1="823.5" x2="823.5" y1="252" y2="162" class="net_11 width_1" style="stroke-width: 1"/><line x1="823.5" x2="882.5" y1="162" y2="162" class="net_11 width_1" style="stroke-width: 1"/><line x1="786.5" x2="833.5" y1="272" y2="272" class="net_12 width_1" style="stroke-width: 1"/><line x1="833.5" x2="833.5" y1="272" y2="227" class="net_12 width_1" style="stroke-width: 1"/><line x1="833.5" x2="882.5" y1="227" y2="227" class="net_12 width_1" style="stroke-width: 1"/><line x1="786.5" x2="882.5" y1="292" y2="292" class="net_13 width_1" style="stroke-width: 1"/><line x1="786.5" x2="823.5" y1="312" y2="312" class="net_14 width_1" style="stroke-width: 1"/><line x1="823.5" x2="823.5" y1="312" y2="357" class="net_14 width_1" style="stroke-width: 1"/><line x1="823.5" x2="882.5" y1="357" y2="357" class="net_14 width_1" style="stroke-width: 1"/><line x1="786.5" x2="813.5" y1="332" y2="332" class="net_15 width_1" style="stroke-width: 1"/><line x1="813.5" x2="813.5" y1="332" y2="422" class="net_15 width_1" style="stroke-width: 1"/><line x1="813.5" x2="882.5" y1="422" y2="422" class="net_15 width_1" style="stroke-width: 1"/><line x1="786.5" x2="803.5" y1="352" y2="352" class="net_16,17 width_2" style="stroke-width: 2"/><line x1="803.5" x2="803.5" y1="352" y2="487" class="net_16,17 width_2" style="stroke-width: 2"/><line x1="803.5" x2="882.5" y1="487" y2="487" class="net_16,17 width_2" style="stroke-width: 2"/><line x1="147" x2="157" y1="67.5" y2="67.5" class="net_18 width_1" style="stroke-width: 1"/><line x1="157" x2="157" y1="67.5" y2="112.5" class="net_18 width_1" style="stroke-width: 1"/><line x1="157" x2="192.33333333333334" y1="112.5" y2="112.5" class="net_18 width_1" style="stroke-width: 1"/><line x1="147" x2="192.33333333333334" y1="132.5" y2="132.5" class="net_19 width_1" style="stroke-width: 1"/><line x1="325" x2="554" y1="122.5" y2="122.5" class="net_20 width_1" style="stroke-width: 1"/><line x1="554" x2="554" y1="122.5" y2="347.5" class="net_20 width_1" style="stroke-width: 1"/><line x1="554" x2="574" y1="347.5" y2="347.5" class="net_20 width_1" style="stroke-width: 1"/><line x1="378.3333333333333" x2="544" y1="207.5" y2="207.5" class="net_23 width_1" style="stroke-width: 1"/><line x1="544" x2="544" y1="207.5" y2="367.5" class="net_23 width_1" style="stroke-width: 1"/><line x1="544" x2="574" y1="367.5" y2="367.5" class="net_23 width_1" style="stroke-width: 1"/><line x1="378.3333333333333" x2="534" y1="267.5" y2="267.5" class="net_24 width_1" style="stroke-width: 1"/><line x1="534" x2="534" y1="267.5" y2="387.5" class="net_24 width_1" style="stroke-width: 1"/><line x1="534" x2="574" y1="387.5" y2="387.5" class="net_24 width_1" style="stroke-width: 1"/><line x1="378.3333333333333" x2="524" y1="327.5" y2="327.5" class="net_25 width_1" style="stroke-width: 1"/><line x1="524" x2="524" y1="327.5" y2="407.5" class="net_25 width_1" style="stroke-width: 1"/><line x1="524" x2="574" y1="407.5" y2="407.5" class="net_25 width_1" style="stroke-width: 1"/><line x1="378.3333333333333" x2="514" y1="387.5" y2="387.5" class="net_21 width_1" style="stroke-width: 1"/><line x1="514" x2="514" y1="387.5" y2="427.5" class="net_21 width_1" style="stroke-width: 1"/><line x1="514" x2="574" y1="427.5" y2="427.5" class="net_21 width_1" style="stroke-width: 1"/><line x1="378.3333333333333" x2="574" y1="447.5" y2="447.5" class="net_22 width_1" style="stroke-width: 1"/><line x1="705.5" x2="779.5" y1="282" y2="282" class="net_16,17,15,14,13,12,11,10,9 width_9" style="stroke-width: 2"/><rect x="249" y="117.5" width="16" height="9" class="net_18,19 width_2 busLabel_2" style="fill: white; stroke: none"/><text x="248" y="125.5" class="net_18,19 width_2 busLabel_2">/2/</text><rect x="133.5" y="299" width="16" height="9" class="net_2,3,4,5,6,7,8 width_7 busLabel_7" style="fill: white; stroke: none"/><text x="132.5" y="307" class="net_2,3,4,5,6,7,8 width_7 busLabel_7">/7/</text><rect x="133.5" y="299" width="16" height="9" class="net_2,3,4,5,6,7,8 width_7 busLabel_7" style="fill: white; stroke: none"/><text x="132.5" y="307" class="net_2,3,4,5,6,7,8 width_7 busLabel_7">/7/</text><rect x="133.5" y="299" width="16" height="9" class="net_2,3,4,5,6,7,8 width_7 busLabel_7" style="fill: white; stroke: none"/><text x="132.5" y="307" class="net_2,3,4,5,6,7,8 width_7 busLabel_7">/7/</text><rect x="133.5" y="299" width="16" height="9" class="net_2,3,4,5,6,7,8 width_7 busLabel_7" style="fill: white; stroke: none"/><text x="132.5" y="307" class="net_2,3,4,5,6,7,8 width_7 busLabel_7">/7/</text><rect x="133.5" y="299" width="16" height="9" class="net_2,3,4,5,6,7,8 width_7 busLabel_7" style="fill: white; stroke: none"/><text x="132.5" y="307" class="net_2,3,4,5,6,7,8 width_7 busLabel_7">/7/</text><rect x="133.5" y="299" width="16" height="9" class="net_2,3,4,5,6,7,8 width_7 busLabel_7" style="fill: white; stroke: none"/><text x="132.5" y="307" class="net_2,3,4,5,6,7,8 width_7 busLabel_7">/7/</text><rect x="133.5" y="299" width="16" height="9" class="net_2,3,4,5,6,7,8 width_7 busLabel_7" style="fill: white; stroke: none"/><text x="132.5" y="307" class="net_2,3,4,5,6,7,8 width_7 busLabel_7">/7/</text><rect x="249" y="390" width="16" height="9" class="net_26,27,28,29,30,31,32 width_7 busLabel_7" style="fill: white; stroke: none"/><text x="248" y="398" class="net_26,27,28,29,30,31,32 width_7 busLabel_7">/7/</text><rect x="249" y="450" width="16" height="9" class="net_33,34,35,36,37,38,39 width_7 busLabel_7" style="fill: white; stroke: none"/><text x="248" y="458" class="net_33,34,35,36,37,38,39 width_7 busLabel_7">/7/</text><rect x="642" y="222" width="16" height="9" class="net_40,41,42,43,44,45,46,47,48 width_9 busLabel_9" style="fill: white; stroke: none"/><text x="641" y="230" class="net_40,41,42,43,44,45,46,47,48 width_9 busLabel_9">/9/</text><rect x="642" y="287" width="22" height="9" class="net_49,50,51,52,53,54,55,56,57,58,59,60,61,62,63,64,65,66,67,68,69,70,71,72,73,74,75,76,77,78,79,80,81,82,83,84,85,86,87,88,89,90,91,92,93,94,95,96,97,98,99,100,101,102 width_54 busLabel_54" style="fill: white; stroke: none"/><text x="641" y="295" class="net_49,50,51,52,53,54,55,56,57,58,59,60,61,62,63,64,65,66,67,68,69,70,71,72,73,74,75,76,77,78,79,80,81,82,83,84,85,86,87,88,89,90,91,92,93,94,95,96,97,98,99,100,101,102 width_54 busLabel_54">/54/</text><rect x="642" y="392.5" width="16" height="9" class="net_20,23,24,25,21,22 width_6 busLabel_6" style="fill: white; stroke: none"/><text x="641" y="400.5" class="net_20,23,24,25,21,22 width_6 busLabel_6">/6/</text><rect x="84" y="70" width="16" height="9" class="net_103,104,105,106,107,108,109 width_7 busLabel_7" style="fill: white; stroke: none"/><text x="83" y="78" class="net_103,104,105,106,107,108,109 width_7 busLabel_7">/7/</text><rect x="84" y="135" width="16" height="9" class="net_110,111,112,113,114,115,116 width_7 busLabel_7" style="fill: white; stroke: none"/><text x="83" y="143" class="net_110,111,112,113,114,115,116 width_7 busLabel_7">/7/</text><rect x="249" y="210" width="16" height="9" class="net_117,118,119,120,121,122,123 width_7 busLabel_7" style="fill: white; stroke: none"/><text x="248" y="218" class="net_117,118,119,120,121,122,123 width_7 busLabel_7">/7/</text><rect x="249" y="270" width="16" height="9" class="net_124,125,126,127,128,129,130 width_7 busLabel_7" style="fill: white; stroke: none"/><text x="248" y="278" class="net_124,125,126,127,128,129,130 width_7 busLabel_7">/7/</text><rect x="249" y="330" width="16" height="9" class="net_131,132,133,134,135,136,137 width_7 busLabel_7" style="fill: white; stroke: none"/><text x="248" y="338" class="net_131,132,133,134,135,136,137 width_7 busLabel_7">/7/</text><rect x="844.5" y="482" width="16" height="9" class="net_16,17 width_2 busLabel_2" style="fill: white; stroke: none"/><text x="843.5" y="490" class="net_16,17 width_2 busLabel_2">/2/</text><rect x="741.5" y="277" width="16" height="9" class="net_16,17,15,14,13,12,11,10,9 width_9 busLabel_9" style="fill: white; stroke: none"/><text x="740.5" y="285" class="net_16,17,15,14,13,12,11,10,9 width_9 busLabel_9">/9/</text></svg>